<?xml version="1.0" encoding="UTF-8"?>
<svg id="Layer_1" xmlns="http://www.w3.org/2000/svg" viewBox="0 0 310 84">
  <defs>
    <style>
      .cls-1, .cls-2 {
        fill-rule: evenodd;
      }

      .cls-1, .cls-3 {
        fill: #fd0;
      }

      .cls-4 {
        fill: #a8034f;
      }

      .cls-5 {
        fill: #0069b4;
      }

      .cls-2, .cls-6 {
        fill: #e30613;
      }

      .cls-7 {
        fill: #fff;
      }
    </style>
  </defs>
  <path d="M303.94,69.98c3.56,0,5.06-1.53,5.06-3.79,0-2.04-1.23-3.24-4.9-3.9-2.52-.41-3.17-1.12-3.17-2.13,0-1.12.85-1.8,2.54-1.8s2.57.65,2.98,2.43l2.19-.46c-.58-2.29-1.75-3.73-5.12-3.73s-4.9,1.47-4.9,3.71c0,2.02,1.23,3.19,4.54,3.79,2.68.46,3.53.98,3.53,2.18-.03,1.23-.93,1.91-2.74,1.91-2.41,0-3.34-1.17-3.78-2.83l-2.16.44c.52,2.54,1.92,4.2,5.91,4.2ZM286.24,74.34c2.71,0,4.27-1.36,5.61-4.52l5.42-12.89h-2.54l-1.56,4.58c-.55,1.66-1.37,4.01-2.05,6.05h-.41c-.66-1.99-1.56-4.41-2.16-6.08l-1.64-4.55h-2.63l5.42,12.62c-1.01,2.26-1.86,2.64-3.37,2.64-.55,0-1.07-.08-1.64-.19l-.38,2.18c.57.08,1.15.16,1.94.16ZM282.35,52.86h-2.38v16.79h2.38v-16.79h0ZM274.33,69.65h2.27v-8.15c0-3.16-1.56-4.88-5.12-4.88-3.07,0-4.9,1.5-5.42,3.95l2.24.55c.41-1.69,1.37-2.54,3.09-2.54,2.08,0,2.82,1.04,2.82,2.94v1.04h-4.1c-3.12,0-4.54,1.61-4.54,3.82,0,2.45,1.56,3.54,3.97,3.54,2.27,0,3.91-1.2,4.54-3.3h.25v3.03h0ZM270.36,68.01c-1.89,0-2.52-.9-2.52-1.91,0-1.25.96-1.91,2.63-1.91h3.75v.71c0,1.8-1.5,3.11-3.86,3.11h0ZM254.17,62.37c0-2.18,1.53-3.62,3.8-3.62,2.05,0,2.76,1.31,2.76,3.05v7.85h2.38v-8.42c0-2.78-1.29-4.63-4.13-4.63-2.22,0-3.91,1.36-4.63,3.63h-.25v-3.3h-2.33v12.73h2.38v-7.28h0ZM246.29,69.65h2.27v-8.15c0-3.16-1.56-4.88-5.12-4.88-3.07,0-4.9,1.5-5.42,3.95l2.24.55c.41-1.69,1.37-2.54,3.09-2.54,2.08,0,2.82,1.04,2.82,2.94v1.04h-4.1c-3.12,0-4.54,1.61-4.54,3.82,0,2.45,1.56,3.54,3.97,3.54,2.27,0,3.91-1.2,4.54-3.3h.25v3.03h0ZM242.32,68.01c-1.89,0-2.52-.9-2.52-1.91,0-1.25.96-1.91,2.63-1.91h3.75v.71c0,1.8-1.5,3.11-3.86,3.11h0ZM230.74,69.98c3.56,0,5.06-1.53,5.06-3.79,0-2.04-1.23-3.24-4.9-3.9-2.52-.41-3.17-1.12-3.17-2.13,0-1.12.85-1.8,2.55-1.8s2.57.65,2.98,2.43l2.19-.46c-.57-2.29-1.75-3.73-5.12-3.73s-4.9,1.47-4.9,3.71c0,2.02,1.23,3.19,4.54,3.79,2.68.46,3.53.98,3.53,2.18-.03,1.23-.93,1.91-2.74,1.91-2.41,0-3.34-1.17-3.78-2.83l-2.16.44c.52,2.54,1.92,4.2,5.91,4.2h0ZM219.28,69.65v-6.3c0-2.86,1.12-3.95,3.89-3.95h.66v-2.62h-.49c-1.97,0-3.28.98-3.94,3.76l-.19-.03v-3.6h-2.3v12.73h2.38,0ZM211.4,69.65h2.27v-8.15c0-3.16-1.56-4.88-5.12-4.88-3.07,0-4.9,1.5-5.42,3.95l2.24.55c.41-1.69,1.37-2.54,3.09-2.54,2.08,0,2.82,1.04,2.82,2.94v1.04h-4.1c-3.12,0-4.54,1.61-4.54,3.82,0,2.45,1.56,3.54,3.97,3.54,2.27,0,3.91-1.2,4.54-3.3h.25v3.03ZM207.43,68.01c-1.89,0-2.52-.9-2.52-1.91,0-1.25.96-1.91,2.63-1.91h3.75v.71c0,1.8-1.51,3.11-3.86,3.11h0ZM197.42,69.65l5.01-12.73h-2.55l-1.7,4.88c-.68,1.93-1.42,3.95-2,5.8h-.55c-.58-1.88-1.31-3.84-2-5.8l-1.72-4.88h-2.6l5.06,12.73h3.04,0ZM183.76,69.98c3.56,0,5.06-1.53,5.06-3.79,0-2.04-1.23-3.24-4.9-3.9-2.52-.41-3.17-1.12-3.17-2.13,0-1.12.85-1.8,2.55-1.8s2.57.65,2.98,2.43l2.19-.46c-.57-2.29-1.75-3.73-5.12-3.73s-4.9,1.47-4.9,3.71c0,2.02,1.23,3.19,4.54,3.79,2.68.46,3.53.98,3.53,2.18-.03,1.23-.93,1.91-2.74,1.91-2.41,0-3.34-1.17-3.78-2.83l-2.16.44c.52,2.54,1.92,4.2,5.91,4.2h0ZM172.3,69.65v-6.3c0-2.86,1.12-3.95,3.89-3.95h.66v-2.62h-.49c-1.97,0-3.28.98-3.94,3.76l-.19-.03v-3.6h-2.3v12.73h2.38,0ZM162.01,55.23h2.55v-2.54h-2.55v2.54ZM157.14,55.23h2.55v-2.54h-2.55v2.54ZM160.97,58.64c2.63,0,4.02,1.72,4.02,4.58s-1.34,4.69-4.05,4.69-3.99-1.83-3.99-4.69c0-2.86,1.39-4.58,4.02-4.58h0ZM160.97,69.98c4.05,0,6.4-2.59,6.4-6.73s-2.54-6.65-6.4-6.65-6.4,2.48-6.4,6.65,2.35,6.73,6.4,6.73ZM149.59,56.87c0-1.66.66-2.53,2.22-2.53.55,0,1.07.08,1.67.16l.11-1.77c-.7-.15-1.42-.22-2.14-.22-2.84,0-4.24,1.72-4.24,4.31v.11h-2.3v1.96h2.3v10.76h2.38v-10.76h3.89v-1.96h-3.89v-.06h0,0ZM142.58,52.86h-2.38v16.79h2.38v-16.79h0ZM134.57,69.65h2.27v-8.15c0-3.16-1.56-4.88-5.12-4.88-3.06,0-4.9,1.5-5.42,3.95l2.24.55c.41-1.69,1.37-2.54,3.09-2.54,2.08,0,2.82,1.04,2.82,2.94v1.04h-4.1c-3.12,0-4.54,1.61-4.54,3.82,0,2.45,1.56,3.54,3.97,3.54,2.27,0,3.91-1.2,4.54-3.3h.25v3.03h0ZM130.6,68.01c-1.89,0-2.52-.9-2.52-1.91,0-1.25.96-1.91,2.63-1.91h3.75v.71c0,1.8-1.5,3.11-3.86,3.11h0ZM117.74,65.86c0,2.37,1.18,4.11,3.86,4.11,1.18,0,1.86-.16,2.74-.44l-.3-2.1c-.68.19-1.26.33-1.94.33-1.42,0-1.97-.74-1.97-2.18v-6.7h4.08v-1.96h-4.08v-3.57h-2.38v3.57h-1.94v1.96h1.94v6.98h0ZM108,58.64c2.63,0,4.02,1.72,4.02,4.58s-1.34,4.69-4.05,4.69-3.99-1.83-3.99-4.69c0-2.86,1.4-4.58,4.02-4.58ZM108,69.98c4.05,0,6.4-2.59,6.4-6.73s-2.55-6.65-6.4-6.65-6.4,2.48-6.4,6.65,2.35,6.73,6.4,6.73ZM93.55,65.86c0,2.37,1.18,4.11,3.86,4.11,1.18,0,1.86-.16,2.74-.44l-.3-2.1c-.68.19-1.26.33-1.94.33-1.42,0-1.97-.74-1.97-2.18v-6.7h4.08v-1.96h-4.08v-3.57h-2.38v3.57h-1.94v1.96h1.94v6.98s0,0,0,0ZM275.43,44.16v-6.3c0-2.86,1.12-3.95,3.89-3.95h.66v-2.62h-.49c-1.97,0-3.28.98-3.94,3.76l-.19-.03v-3.6h-2.3v12.73s2.38,0,2.38,0ZM265.14,29.74h2.55v-2.53h-2.55v2.53ZM260.27,29.74h2.55v-2.53h-2.55v2.53ZM264.1,33.15c2.63,0,4.02,1.72,4.02,4.58s-1.34,4.69-4.05,4.69-3.99-1.83-3.99-4.69,1.4-4.58,4.02-4.58h0ZM264.1,44.48c4.05,0,6.4-2.59,6.4-6.73s-2.54-6.65-6.4-6.65-6.4,2.48-6.4,6.65,2.35,6.73,6.4,6.73h0ZM252.72,31.37c0-1.66.66-2.53,2.22-2.53.55,0,1.07.08,1.67.16l.11-1.77c-.7-.15-1.42-.22-2.14-.22-2.84,0-4.24,1.72-4.24,4.31v.11h-2.3v1.96h2.3v10.76h2.38v-10.76h3.89v-1.96h-3.89v-.06h0ZM231.7,36.88c0-2.18,1.53-3.62,3.8-3.62,2.05,0,2.76,1.31,2.76,3.05v7.85h2.38v-8.42c0-2.78-1.29-4.63-4.13-4.63-2.22,0-3.91,1.36-4.62,3.62h-.25v-3.3h-2.33v12.73h2.38v-7.28h0ZM221.06,44.45c3.31,0,4.95-1.53,5.58-3.95l-2.08-.57c-.41,1.42-1.2,2.56-3.5,2.56-2.46,0-3.83-1.42-4.02-4.01h9.63c.05-.57.08-1.14.08-1.53,0-3.52-1.92-5.86-5.75-5.86s-6.35,2.53-6.35,6.79,2.43,6.57,6.4,6.57h0ZM220.95,32.98c2.35,0,3.48,1.36,3.58,3.79h-7.47c.27-2.53,1.64-3.79,3.89-3.79h0ZM206.61,40.37c0,2.37,1.18,4.12,3.86,4.12,1.18,0,1.86-.16,2.74-.44l-.3-2.1c-.68.19-1.26.33-1.94.33-1.42,0-1.97-.74-1.97-2.18v-6.7h4.08v-1.96h-4.08v-3.57h-2.38v3.57h-1.94v1.96h1.94v6.98h0ZM197.55,44.45c3.31,0,4.95-1.53,5.58-3.95l-2.08-.57c-.41,1.42-1.2,2.56-3.5,2.56-2.46,0-3.83-1.42-4.02-4.01h9.63c.06-.57.08-1.14.08-1.53,0-3.52-1.92-5.86-5.75-5.86s-6.35,2.53-6.35,6.79c0,4.22,2.43,6.57,6.4,6.57ZM197.44,32.98c2.35,0,3.48,1.36,3.58,3.79h-7.47c.27-2.53,1.64-3.79,3.89-3.79h0ZM179.77,36.88c0-2.18,1.5-3.62,3.83-3.62,1.97,0,2.74,1.31,2.74,3.05v7.85h2.38v-8.42c0-2.78-1.29-4.63-4.08-4.63-2.33,0-3.94,1.39-4.68,3.62h-.19v-7.36h-2.38v16.79h2.38v-7.28ZM175.23,45.08c0-1.93-1.34-3.05-3.94-3.05-1.4,0-2.93.03-4.35.03-.88,0-1.34-.22-1.34-.76,0-.27.16-.52.38-.87l.36-.57c.63.19,1.34.27,2.16.27,3.56,0,5.42-1.42,5.42-3.79,0-1.85-1.45-2.59-3.2-2.94v-.25c1.15.11,1.97.16,2.65.16h1.53v-1.88h-6.21c-3.48,0-5.53,1.55-5.53,4.44,0,1.88.99,3.27,2.82,3.9l-.96.6c-.77.41-1.31.98-1.31,1.64,0,.9.63,1.42,1.59,1.61v.14c-1.78.38-2.87,1.17-2.87,2.29,0,1.69,1.42,2.75,6.24,2.73,4.95.03,6.57-1.17,6.57-3.68h0ZM168.74,46.99c-3.47,0-4.4-.49-4.4-1.63,0-.79.74-1.63,2.33-1.63h4.6c1.42,0,2,.63,2,1.44,0,1.2-.85,1.83-4.51,1.83h0ZM168.49,33.31c2.22,0,3.34.98,3.34,2.56s-.99,2.53-3.28,2.53-3.2-.95-3.2-2.53c0-1.53.93-2.56,3.15-2.56ZM160.12,31.43h-2.38v12.73h2.38v-12.72h0ZM160.31,27.53h-2.74v2.15h2.74v-2.15h0ZM151.78,44.15h2.38v-16.79h-2.38v7.44h-.16c-.63-2.18-2.05-3.71-4.57-3.71-3.12,0-4.95,2.4-4.95,6.73s1.78,6.65,4.9,6.65c2.41,0,4-1.55,4.62-3.73h.16v3.41h0ZM148.03,42.36c-2.44,0-3.58-1.47-3.58-4.52s1.18-4.58,3.58-4.58,3.75,1.66,3.75,4.09v.98c0,2.48-1.48,4.03-3.75,4.03h0ZM130.71,36.88c0-2.18,1.53-3.62,3.8-3.62,2.05,0,2.76,1.31,2.76,3.05v7.85h2.38v-8.42c0-2.78-1.29-4.63-4.13-4.63-2.22,0-3.91,1.36-4.62,3.62h-.25v-3.3h-2.33v12.73h2.38v-7.28h0ZM115.58,48.84c2.71,0,4.27-1.36,5.61-4.52l5.42-12.89h-2.54l-1.56,4.58c-.55,1.66-1.37,4.01-2.05,6.05h-.41c-.66-1.99-1.56-4.41-2.16-6.08l-1.64-4.55h-2.63l5.42,12.62c-1.01,2.26-1.86,2.64-3.37,2.64-.55,0-1.07-.08-1.64-.19l-.38,2.18c.57.08,1.15.16,1.94.16ZM95.9,36.06c0-1.91.03-4.31-.03-6.19h.46c.66,2.2,1.39,4.38,2.19,6.54l2.68,6.76h2.54l2.74-6.65c.85-2.15,1.67-4.66,2.27-6.65h.52c-.06,2.06-.1,4.12-.11,6.19v8.09h2.49v-16.35h-3.94l-3.01,7.52c-.47,1.25-1.2,3.46-1.78,5.29h-.52c-.54-1.76-1.12-3.5-1.75-5.23l-2.93-7.58h-4.19v16.35h2.35v-8.09s0,0,0,0Z"/>
  <path class="cls-5" d="M20.82,33.68v29.28c0,9.15,12.76,5.97,17.36,9,4.6-3.03,17.36.16,17.36-9v-29.28H20.82h0Z"/>
  <path d="M71.85,32.94c1.65-1.11,3.52-2.37,3.52-5.53,0-.44-.03-.65-.03-.66,0-.05-.05-.09-.1-.09-.05,0-.1.03-.11.08,0,0-.22.83-1.27,1.49-.47.3-.93.5-1.43.71-.74.32-1.51.65-2.36,1.34-.24.2-.46.41-.64.61,0-.14-.02-.28-.03-.42.58-.98,1.33-1.44,2.24-2,.55-.33,1.08-.68,1.59-1.07.96-.75,1.48-1.52,1.78-2.66.49-1.83.1-3.25.08-3.31-.01-.05-.06-.08-.11-.08h0s-.09.03-.1.08c-.4,1.64-2,3.19-3.88,3.77-3.16.97-5.18,2.37-6.31,3.37-.51.44-.97.93-1.38,1.46.63-2.06,2.27-2.98,3.74-3.8,1.24-.69,2.31-1.29,2.31-2.45s-.32-1.66-.33-1.68c-.02-.04-.07-.06-.12-.05-.04.01-.08.05-.08.1-.1,1.15-.76,1.93-2.07,2.44-2.89,1.12-6.55,3.17-7.56,6.57-.48,1.61-.19,2.99.15,3.59l-3.09,2.41.43.55-.93.72v-4.96H20.6v4.96l-.93-.72.43-.55-3.09-2.41c.34-.61.63-1.98.15-3.59-1.01-3.4-4.67-5.45-7.56-6.57-1.31-.51-1.97-1.28-2.07-2.44,0-.05-.04-.08-.08-.1-.05-.01-.09,0-.12.05-.01.02-.33.54-.33,1.68s1.07,1.75,2.31,2.45c1.46.82,3.11,1.73,3.74,3.8-.27-.36-.71-.87-1.38-1.46-1.13-1-3.14-2.4-6.31-3.37-1.88-.58-3.47-2.13-3.88-3.77-.01-.05-.05-.08-.1-.08h0s-.09.03-.1.08c-.02.06-.41,1.49.08,3.31.31,1.14.82,1.91,1.78,2.66.57.45,1.11.78,1.58,1.07.91.56,1.66,1.02,2.24,2-.02.14-.03.28-.03.42-.2-.22-.41-.42-.64-.61-.84-.69-1.61-1.02-2.36-1.34-.49-.21-.96-.41-1.43-.71-1.05-.66-1.26-1.48-1.26-1.49-.02-.06-.07-.09-.13-.08-.04.01-.07.05-.08.09-.03.22-.04.44-.03.66,0,3.16,1.87,4.42,3.52,5.53,1.25.84,2.34,1.57,2.38,2.98-.15-.26-.39-.59-.66-.8-.68-.51-1.23-.74-1.77-.97-.54-.23-1.06-.44-1.68-.93-.04-.03-.1-.03-.14,0-.04.03-.05.09-.02.14,0,.01.53.9.87,1.56.36.69.5,1.15.66,1.69.18.61.39,1.3.99,2.48.76,1.49,2.36,3.08,4.6,3.08.9,0,1.59-.3,1.8-.41l3.03,2.36.43-.55,5.58,4.35v15.02c0,.81.1,1.54.29,2.21l-2.95,2.26-4.27-7.28c-.08-.13-.25-.18-.39-.1,0,0-.02.01-.03.02l-2.44,1.87c-.11.08-.14.23-.08.35l4,7.6h-.01s0,.02,0,.02l-8.91,7.6-1.05.15c-.07,0-.13.04-.17.1l-1.78,2.11c-.09.1-.09.25,0,.35l2.31,3c.05.07.13.11.22.11h0s.08-.01.12-.03l2.5-1.17c.06-.03.11-.08.14-.14l.39-.91,9.72-6.66h0s.01,0,.01,0l6.37,5.83c.1.09.25.1.36.02l2.44-1.87c.12-.09.15-.27.05-.39,0,0-.01-.02-.02-.03l-5.98-6.01,3.56-2.73c1.9.72,4.19,1.01,6.41,1.28,2.63.32,5.12.63,6.65,1.63l.12.08.12-.08c1.53-1.01,4.01-1.31,6.64-1.63,2.21-.27,4.48-.55,6.38-1.27l3.59,2.75-5.98,6.01c-.11.11-.11.29,0,.4,0,0,.02.02.03.02l2.44,1.87c.11.08.26.08.36-.02l6.37-5.83h.01s0,0,0,0l9.72,6.65.39.91c.03.06.08.11.14.14l2.5,1.17s.08.03.12.03h0c.08,0,.16-.04.22-.11l2.31-3c.08-.1.08-.25,0-.35l-1.78-2.11c-.04-.05-.11-.09-.17-.1l-1.05-.15-8.91-7.6h0s-.01-.02-.01-.02l4-7.6c.06-.12.03-.27-.08-.35l-2.44-1.87c-.12-.09-.3-.07-.39.05,0,0-.01.02-.02.03l-4.27,7.28-2.94-2.26c.2-.67.3-1.42.3-2.23v-15.02l5.58-4.36.43.55,3.03-2.36c.21.1.89.41,1.8.41,2.24,0,3.85-1.59,4.6-3.08.6-1.18.81-1.87.99-2.48.16-.54.3-1,.66-1.69.34-.65.87-1.55.87-1.56.03-.04.02-.1-.02-.14-.04-.03-.1-.04-.14,0-.62.48-1.13.7-1.67.93-.54.23-1.1.46-1.77.97-.27.2-.51.54-.66.8.04-1.4,1.13-2.14,2.38-2.98ZM11.5,41.55c-.54.26-1.14.4-1.74.4-2.14,0-3.68-1.53-4.41-2.96-.41-.78-.73-1.6-.98-2.45-.16-.52-.31-1.02-.68-1.72-.2-.38-.41-.76-.63-1.13.47.31.9.49,1.31.66.53.22,1.07.45,1.73.94.43.32.78,1.06.78,1.06.02.05.09.08.14.05.03-.02.06-.05.06-.08.02-.09.02-.2.02-.33,0-1.57-1.2-2.38-2.47-3.23-1.61-1.08-3.43-2.31-3.43-5.35,0-.07,0-.13,0-.18.18.32.53.78,1.17,1.19.48.3.96.51,1.46.73.73.32,1.49.64,2.31,1.31.31.25.56.51.77.77,0,1.23.85,2.16,1.59,2.99.64.71,1.24,1.38,1.24,2.13,0,.06.05.11.11.11s.11-.05.11-.11c0-.83-.63-1.53-1.3-2.27-.75-.84-1.53-1.7-1.53-2.85,0-.7.12-1.31.21-1.68.55,1.76,2.39,2.96,6.17,4.07.06.02.12-.01.14-.07.02-.06-.01-.12-.07-.14,0,0,0,0,0,0-4.91-1.43-5.84-2.91-6.11-4.3,0-.05-.05-.08-.1-.09-.05,0-.09.03-.11.07-.11.35-.2.7-.25,1.06-.59-.88-1.33-1.34-2.17-1.85-.47-.29-1.01-.62-1.57-1.05-.92-.72-1.42-1.46-1.71-2.55-.24-.91-.3-1.86-.16-2.78.57,1.55,2.11,2.95,3.9,3.5,5.97,1.84,7.88,5.2,7.9,5.24.03.05.09.07.15.04.04-.02.06-.07.05-.12-.5-2.58-2.43-3.66-3.99-4.53-1.23-.69-2.2-1.23-2.2-2.26,0-.56.08-.96.15-1.21.22,1.03.91,1.74,2.15,2.22,2.84,1.1,6.45,3.12,7.43,6.43.51,1.71.1,3.09-.19,3.52l-5.27,6.82h0ZM11.72,41.61l5.18-6.69,2.24,1.75-5.25,6.63s-2.17-1.69-2.17-1.69ZM14.55,43.82l-.49-.38,5.25-6.63.49.38-5.25,6.63h0ZM20.6,47.65l-5.45-4.25,1.19-1.5,4.26,3.32v2.43h0ZM20.6,44.95l-4.13-3.21,1.74-2.2,2.39,1.89v3.52h0ZM20.6,41.15l-2.25-1.78,1.19-1.5,1.06.83v2.46h0ZM20.96,65.38c.28.84.72,1.56,1.33,2.18l-.73.56-3.38-.61s2.78-2.13,2.78-2.13ZM21.48,68.32l-.28,3.33-3.02-3.92,3.3.59h0ZM10.94,62.17s0-.06.02-.08l2.44-1.87s.07-.02.09.01c0,0,0,0,0,0l4.29,7.3-2.85,2.19s-3.98-7.56-3.98-7.56ZM6.72,77.02l.24,1.83-.93-1.24.69-.59ZM7.92,81.88s-.02.03-.03.03l-2.51,1.17s-.06,0-.08-.02l-2.31-3s-.02-.06,0-.08l1.78-2.11s.02-.02.04-.02l1.02-.15,2.47,3.29s-.38.88-.38.88ZM8.45,80.84l-1.22-1.63-.31-2.35,1.72-1.47.66,4.87s-.84.58-.84.58ZM9.49,80.12l-.66-4.9,1.76-1.5.64,5.22-1.73,1.19ZM11.42,78.8l-.64-5.25,1.73-1.48.66,5.53s-1.75,1.2-1.75,1.2ZM13.38,77.46l-.66-5.56,1.71-1.46.72,5.81-1.77,1.21ZM15.35,76.11l-.72-5.84.25-.21,1.97,2.56.27,2.28-1.77,1.21h0ZM17.32,74.76l-.21-1.81.98,1.28c-.14.09-.42.28-.77.53h0ZM15.05,69.92l2.85-2.2,3.23,4.19-2.87,2.19s-3.22-4.18-3.22-4.18ZM27.28,78.11s.02.03.02.05c0,.02-.01.03-.03.04l-2.44,1.87s-.06.02-.08,0l-6.34-5.8,2.86-2.18,6,6.03h0ZM21.42,71.7l.28-3.42.76-.58c.5.46,1.06.84,1.67,1.13.21.1.43.2.65.29l-3.36,2.57h0ZM51.56,69.14c.23-.09.46-.19.68-.3.6-.29,1.16-.67,1.65-1.11l.77.59.28,3.42s-3.39-2.59-3.39-2.59ZM51.61,80.09s-.03.02-.04.02c-.01,0-.03,0-.04-.01l-2.44-1.87s-.03-.06-.01-.09c0,0,0,0,0,0l6-6.03,2.86,2.18s-6.34,5.8-6.34,5.8ZM58.27,74.26l.98-1.28-.21,1.81s-.77-.53-.77-.53ZM70.53,77.74l1.02.15s.03.01.04.02l1.78,2.11s.02.06,0,.08l-2.31,3s-.03.02-.05.02c0,0-.02,0-.03,0l-2.51-1.17s-.02-.02-.03-.03l-.38-.88,2.47-3.29h0ZM70.34,77.64l-.93,1.24.24-1.83.69.59ZM69.45,76.88l-.31,2.35-1.22,1.63-.85-.58.66-4.87s1.72,1.47,1.72,1.47ZM67.54,75.25l-.66,4.9-1.73-1.19.64-5.22,1.75,1.5h0ZM65.58,73.58l-.64,5.25-1.75-1.2.66-5.53,1.73,1.48ZM63.65,71.93l-.66,5.56-1.77-1.21.72-5.81,1.71,1.46ZM61.74,70.3l-.72,5.84-1.77-1.21.27-2.28,1.97-2.56.25.21ZM62.87,60.27s.02-.03.04-.03c.02,0,.04,0,.05.01l2.44,1.87s.03.05.02.08l-3.99,7.56-2.85-2.19s4.29-7.3,4.29-7.3ZM58.46,67.75l2.86,2.2-3.22,4.18-2.87-2.19,3.23-4.19h0ZM55.16,71.68l-.28-3.33,3.3-.59s-3.02,3.92-3.02,3.92ZM58.18,67.54l-3.38.61-.75-.57c.61-.61,1.07-1.35,1.35-2.17,0,0,2.78,2.13,2.78,2.13ZM38.18,71.95c-4.6-3.03-17.37.16-17.37-9v-29.28h34.73v29.28c0,9.15-12.76,5.97-17.36,9h0ZM55.77,38.69l1.06-.83,1.19,1.5-2.25,1.78s0-2.46,0-2.46ZM55.77,41.43l2.39-1.89,1.74,2.2-4.13,3.21s0-3.52,0-3.52ZM55.77,47.65v-2.43l4.26-3.32,1.19,1.5s-5.45,4.25-5.45,4.25ZM61.82,43.82l-5.25-6.63.49-.38,5.25,6.63-.49.38ZM62.49,43.3l-5.25-6.63,2.24-1.75,5.18,6.69-2.17,1.69ZM69.25,35.99c0,.13,0,.24.02.33,0,.06.06.1.12.09.04,0,.07-.03.08-.06,0,0,.35-.74.78-1.06.65-.49,1.2-.72,1.73-.94.42-.17.84-.35,1.31-.66-.18.32-.43.76-.63,1.13-.37.71-.52,1.2-.68,1.72-.18.6-.39,1.28-.98,2.45-.73,1.43-2.27,2.96-4.41,2.96-.92,0-1.62-.34-1.74-.4l-5.27-6.82c-.29-.43-.7-1.81-.19-3.52.99-3.31,4.59-5.32,7.43-6.43,1.24-.48,1.93-1.19,2.15-2.22.08.26.16.66.16,1.21,0,1.03-.97,1.57-2.2,2.26-1.56.87-3.49,1.95-3.99,4.53-.01.06.02.12.08.13.05.01.1-.01.12-.06.02-.03,1.92-3.4,7.9-5.24,1.79-.55,3.33-1.95,3.9-3.5.14.93.08,1.88-.16,2.78-.29,1.09-.79,1.83-1.71,2.55-.56.44-1.09.77-1.57,1.06-.84.52-1.58.97-2.17,1.85-.05-.36-.14-.72-.25-1.06-.02-.05-.06-.07-.11-.07-.05,0-.09.04-.1.09-.27,1.38-1.21,2.86-6.11,4.3-.06.01-.1.07-.08.13.01.06.07.1.13.08,0,0,0,0,.01,0,3.78-1.1,5.62-2.3,6.17-4.07.09.37.21.98.21,1.68,0,1.15-.78,2.01-1.53,2.85-.67.74-1.3,1.44-1.3,2.27,0,.06.05.11.11.11s.11-.05.11-.11c0-.75.6-1.42,1.24-2.13.74-.82,1.58-1.76,1.58-2.99.23-.28.49-.54.77-.77.82-.67,1.58-1,2.31-1.31.5-.22.98-.42,1.46-.73.64-.41.99-.86,1.17-1.19,0,.06,0,.12,0,.18,0,3.04-1.82,4.27-3.43,5.35-1.27.85-2.47,1.66-2.47,3.23Z"/>
  <path class="cls-3" d="M11.5,41.55c-.54.26-1.14.4-1.74.4-2.14,0-3.68-1.53-4.41-2.96-.41-.78-.73-1.6-.98-2.45-.16-.52-.31-1.02-.68-1.72-.2-.38-.41-.76-.63-1.13.47.31.9.49,1.31.66.53.22,1.07.45,1.73.94.43.32.78,1.06.78,1.06.02.05.09.08.14.05.03-.02.06-.05.06-.08.02-.09.02-.2.02-.33,0-1.57-1.2-2.38-2.47-3.23-1.61-1.08-3.43-2.31-3.43-5.35,0-.07,0-.13,0-.18.18.32.53.78,1.17,1.19.48.3.96.51,1.46.73.73.32,1.49.64,2.31,1.31.31.25.56.51.77.77,0,1.23.85,2.16,1.59,2.99.64.71,1.24,1.38,1.24,2.13,0,.06.05.11.11.11s.11-.05.11-.11c0-.83-.63-1.53-1.3-2.27-.75-.84-1.53-1.7-1.53-2.85,0-.7.12-1.31.21-1.68.55,1.76,2.39,2.96,6.17,4.07.06.02.12-.01.14-.07.02-.06-.01-.12-.07-.14,0,0,0,0,0,0-4.91-1.43-5.84-2.91-6.11-4.3,0-.05-.05-.08-.1-.09-.05,0-.09.03-.11.07-.11.35-.2.7-.25,1.06-.59-.88-1.33-1.34-2.17-1.85-.47-.29-1.01-.62-1.57-1.05-.92-.72-1.42-1.46-1.71-2.55-.24-.91-.3-1.86-.16-2.78.57,1.55,2.11,2.95,3.9,3.5,5.97,1.84,7.88,5.2,7.9,5.24.03.05.1.07.15.04.04-.02.06-.07.05-.11-.5-2.58-2.43-3.66-3.99-4.53-1.23-.69-2.2-1.23-2.2-2.26,0-.56.08-.96.15-1.21.22,1.03.91,1.74,2.15,2.22,2.84,1.1,6.45,3.12,7.43,6.43.51,1.71.1,3.09-.19,3.52l-5.27,6.82h0ZM11.72,41.61l5.18-6.69,2.24,1.75-5.25,6.63s-2.17-1.69-2.17-1.69ZM14.55,43.82l-.49-.38,5.25-6.63.49.38-5.25,6.63h0ZM20.6,47.65l-5.45-4.25,1.19-1.5,4.26,3.32v2.43h0ZM20.6,44.95l-4.13-3.21,1.74-2.2,2.39,1.89v3.52h0ZM20.6,41.15l-2.25-1.78,1.19-1.5,1.06.83v2.46h0ZM20.96,65.38c.28.84.72,1.56,1.33,2.18l-.73.56-3.38-.61s2.78-2.13,2.78-2.13ZM21.48,68.32l-.28,3.33-3.02-3.92,3.3.59h0ZM10.94,62.17s0-.06.02-.08l2.44-1.87s.07-.02.09.01c0,0,0,0,0,0l4.29,7.3-2.85,2.19s-3.98-7.56-3.98-7.56ZM6.72,77.02l.24,1.83-.93-1.24.69-.59ZM7.92,81.88s-.02.03-.03.03l-2.51,1.17s-.06,0-.08-.02l-2.31-3s-.02-.06,0-.08l1.78-2.11s.02-.02.04-.02l1.02-.15,2.47,3.29s-.38.88-.38.88ZM8.45,80.84l-1.22-1.63-.31-2.35,1.72-1.47.66,4.87s-.84.58-.84.58ZM9.49,80.12l-.66-4.9,1.76-1.5.64,5.22-1.73,1.19ZM11.42,78.8l-.64-5.25,1.73-1.48.66,5.53s-1.75,1.2-1.75,1.2ZM13.38,77.46l-.66-5.56,1.71-1.46.72,5.81-1.77,1.21ZM15.35,76.11l-.72-5.84.25-.21,1.97,2.56.27,2.28-1.77,1.21h0ZM17.32,74.76l-.21-1.81.98,1.28c-.14.09-.42.28-.77.53h0ZM15.05,69.92l2.85-2.2,3.23,4.19-2.87,2.19s-3.22-4.18-3.22-4.18ZM27.28,78.11s.03.06,0,.09c0,0,0,0,0,0l-2.44,1.87s-.03.01-.04.01c-.02,0-.03,0-.04-.02l-6.34-5.8,2.86-2.18,6,6.03h0ZM21.42,71.7l.28-3.42.76-.58c.47.44,1.02.81,1.67,1.13.21.1.43.2.65.29l-3.36,2.57h0ZM51.56,69.14c.23-.09.46-.19.68-.3.6-.29,1.15-.67,1.65-1.11l.77.59.28,3.42s-3.39-2.59-3.39-2.59ZM51.61,80.09s-.03.02-.04.02c-.01,0-.03,0-.04-.01l-2.44-1.87s-.03-.06-.01-.09c0,0,0,0,0,0l6-6.03,2.86,2.18s-6.34,5.8-6.34,5.8ZM58.27,74.26l.98-1.28-.21,1.81s-.77-.53-.77-.53ZM70.53,77.74l1.02.15s.03.01.04.02l1.78,2.11s.02.06,0,.08l-2.31,3s-.03.02-.05.02c0,0-.02,0-.03,0l-2.51-1.17s-.02-.02-.03-.03l-.38-.88,2.47-3.29h0ZM70.34,77.64l-.93,1.24.24-1.83s.69.59.69.59ZM69.45,76.88l-.31,2.35-1.22,1.63-.85-.58.66-4.87s1.72,1.47,1.72,1.47ZM67.54,75.25l-.66,4.9-1.73-1.19.64-5.22,1.75,1.5h0ZM65.58,73.58l-.64,5.25-1.75-1.2.66-5.53,1.73,1.48ZM63.65,71.93l-.66,5.56-1.77-1.21.72-5.81,1.71,1.46ZM61.74,70.3l-.72,5.84-1.77-1.21.27-2.28,1.97-2.56.25.21ZM62.87,60.27s.02-.03.04-.03c.02,0,.04,0,.05.01l2.44,1.87s.03.05.02.08l-3.99,7.56-2.85-2.19s4.29-7.3,4.29-7.3ZM58.46,67.75l2.86,2.2-3.22,4.18-2.87-2.19,3.23-4.19h0ZM55.16,71.68l-.28-3.33,3.3-.59s-3.02,3.92-3.02,3.92ZM58.18,67.54l-3.38.61-.75-.57c.61-.61,1.07-1.35,1.35-2.17,0,0,2.78,2.13,2.78,2.13ZM55.77,38.69l1.06-.83,1.19,1.5-2.25,1.78s0-2.46,0-2.46ZM55.77,41.43l2.39-1.89,1.74,2.2-4.13,3.21s0-3.52,0-3.52ZM55.77,47.65v-2.43l4.26-3.32,1.19,1.5-5.45,4.25ZM61.82,43.82l-5.25-6.63.49-.38,5.25,6.63-.49.38ZM62.49,43.3l-5.25-6.63,2.24-1.75,5.18,6.69-2.17,1.69ZM69.25,35.99c0,.13,0,.24.02.33,0,.06.06.1.12.09.04,0,.07-.03.08-.06,0,0,.35-.74.78-1.06.65-.49,1.2-.72,1.73-.94.42-.17.84-.35,1.31-.66-.18.32-.43.76-.63,1.13-.37.71-.52,1.2-.68,1.72-.18.6-.39,1.28-.98,2.45-.73,1.43-2.27,2.96-4.41,2.96-.92,0-1.62-.34-1.74-.4l-5.27-6.82c-.29-.43-.7-1.81-.19-3.52.99-3.31,4.59-5.32,7.43-6.43,1.24-.48,1.93-1.19,2.15-2.22.08.26.16.66.16,1.21,0,1.03-.97,1.57-2.2,2.26-1.56.87-3.49,1.95-3.99,4.53-.01.06.02.12.08.13.05.01.1-.01.12-.06.02-.03,1.92-3.4,7.9-5.24,1.79-.55,3.33-1.95,3.9-3.5.14.93.08,1.88-.16,2.78-.29,1.09-.79,1.83-1.71,2.55-.56.44-1.09.77-1.57,1.06-.84.52-1.58.97-2.17,1.85-.05-.36-.14-.72-.25-1.06-.02-.05-.06-.07-.11-.07-.05,0-.09.04-.1.09-.27,1.38-1.21,2.86-6.11,4.3-.06.01-.1.07-.08.13.01.06.07.1.13.08,0,0,0,0,.01,0,3.78-1.1,5.62-2.3,6.17-4.07.09.37.21.98.21,1.68,0,1.15-.78,2.01-1.53,2.85-.67.74-1.3,1.44-1.3,2.27,0,.06.05.11.11.11s.11-.05.11-.11c0-.75.6-1.42,1.24-2.13.74-.82,1.58-1.76,1.58-2.99.21-.25.46-.52.77-.77.82-.67,1.58-1,2.31-1.31.5-.22.98-.42,1.46-.73.64-.41.99-.86,1.17-1.19,0,.06,0,.12,0,.18,0,3.04-1.82,4.27-3.43,5.35-1.27.85-2.47,1.66-2.47,3.23ZM36.06,49.89l.28-2.75h-12.35l.29,2.75h11.78ZM37.26,38.31c-2.22,0-1.35,2.25-1.35,2.25-1.01-.19-1.97.13-1.97,1.27,0,1.79,2.01,1.1,2.01,1.1-.13,2.31-1.55,2.11-1.55,2.11-.8,0-1.24-.98-1.24-.98-.25.74-.71.98-1.33.98-1.24,0-1.26-1.14-1.26-1.69v-.71c.27.28.59.46,1.01.46,1,0,1.33-.6,1.33-1.24,0-1.7-1.84-1.28-1.84-1.28.29-.33.38-.66.38-.94,0-.61-.49-1.33-1.29-1.33s-1.29.72-1.29,1.33c0,.28.09.6.38.94,0,0-1.84-.42-1.84,1.28,0,.64.33,1.24,1.33,1.24.43,0,.74-.18,1.01-.46v.71c0,.55-.02,1.69-1.26,1.69-.62,0-1.08-.24-1.33-.98,0,0-.45.98-1.24.98,0,0-1.42.2-1.55-2.11,0,0,2.01.69,2.01-1.09,0-1.14-.96-1.46-1.97-1.27,0,0,.87-2.25-1.35-2.25l.87,8.4h12.44s.87-8.4.87-8.4ZM40.31,49.89h11.78l.28-2.75h-12.35l.29,2.75h0ZM53.29,38.31c-2.21,0-1.35,2.25-1.35,2.25-1.01-.19-1.97.13-1.97,1.27,0,1.79,2.01,1.1,2.01,1.1-.13,2.31-1.55,2.11-1.55,2.11-.8,0-1.24-.98-1.24-.98-.25.74-.71.98-1.33.98-1.24,0-1.26-1.14-1.26-1.69v-.71c.27.28.59.46,1.01.46,1,0,1.33-.6,1.33-1.24,0-1.7-1.84-1.28-1.84-1.28.29-.33.38-.66.38-.94,0-.61-.48-1.33-1.29-1.33s-1.29.72-1.29,1.33c0,.28.09.6.38.94,0,0-1.84-.42-1.84,1.28,0,.64.33,1.24,1.33,1.24.43,0,.74-.18,1.01-.46v.71c0,.55-.02,1.69-1.26,1.69-.62,0-1.08-.24-1.33-.98,0,0-.45.98-1.24.98,0,0-1.42.2-1.55-2.11,0,0,2.01.69,2.01-1.09,0-1.14-.96-1.46-1.97-1.27,0,0,.87-2.25-1.35-2.25l.87,8.4h12.44s.87-8.4.87-8.4ZM44.76,54.97c-1.15-.22-2.25.15-2.25,1.45,0,2.05,2.3,1.25,2.3,1.25-.15,2.64-1.77,2.41-1.77,2.41-.91,0-1.42-1.12-1.42-1.12-.29.85-.81,1.12-1.52,1.12-1.41,0-1.44-1.3-1.44-1.93v-.81c.31.32.67.53,1.16.53,1.14,0,1.52-.68,1.52-1.42,0-1.94-2.1-1.47-2.1-1.47.33-.38.44-.76.44-1.07,0-.7-.55-1.52-1.48-1.52s-1.48.82-1.48,1.52c0,.32.1.69.44,1.07,0,0-2.1-.48-2.1,1.47,0,.74.38,1.42,1.52,1.42.49,0,.85-.21,1.16-.53v.81c0,.63-.03,1.93-1.44,1.93-.71,0-1.23-.27-1.52-1.12,0,0-.51,1.12-1.42,1.12,0,0-1.62.23-1.77-2.41,0,0,2.3.79,2.3-1.25,0-1.3-1.1-1.67-2.25-1.45,0,0,.99-2.58-1.54-2.58l1,9.64h14.22l1-9.64c-2.54,0-1.54,2.57-1.54,2.57h0ZM31.45,65.63h13.47l.33-3.17h-14.13s.33,3.17.33,3.17ZM57.86,22.28c-.09.05-.42.26-.58.78-.18.57.03.99.07,1.06-.29.88-.52,1.47-.99,2.41-.36.72-.82,1.3-.95,1.44H20.97c-.13-.13-.58-.72-.95-1.44-.4-.77-.73-1.58-.99-2.41.02-.04.25-.48.06-1.07-.17-.52-.49-.73-.58-.78-.26-1.07-.56-2.26-1.03-2.92.74.04.94.26,1.22.58l.09.1s.07.04.11.03c.04-.01.07-.04.08-.08.02-.08.24-.43.38-.6.42.35.7.6.9,1.01.16.35.16.82.12,1.16-.03.05-.02.12.03.15.03.02.06.02.09.01.67-.23,1.37-.18,1.71-.02.34.16.53.34.6.41-.05.08-.21.25-.36.38-.03.03-.04.08-.03.12.02.04.06.07.1.07,0,0,.3,0,.48.18.1.1.14.24.13.41h0c0,.19-.04.32-.13.42-.18.17-.48.16-.48.16-.05,0-.09.02-.11.07-.02.04,0,.09.03.12.15.13.31.31.36.39-.15.19-.35.33-.59.4-.35.12-1.27.28-2.16-.66-.04-.04-.11-.05-.15,0-.02.02-.03.05-.03.07-.02.37.06.85.23,1.28.24.63.98,1.12,1.68,1.12.84,0,1.69-.5,2.11-1.22.39.67,1.18,1.29,2.08,1.25,1.3-.05,1.88-.85,1.95-1.38.04-.3,0-.6-.11-1.04-.02-.06-.07-.09-.13-.08-.02,0-.04.02-.05.03-.89.94-1.81.77-2.16.66-.23-.07-.44-.21-.58-.4.05-.08.21-.25.36-.39.04-.04.05-.11,0-.15-.02-.02-.05-.04-.09-.04,0,0-.3.01-.48-.16-.09-.1-.14-.23-.13-.41h0c0-.19.04-.33.13-.42.18-.18.48-.18.48-.18.06,0,.11-.05.11-.1,0-.03-.01-.06-.03-.08-.13-.12-.25-.25-.36-.39.05-.07.23-.28.59-.4.44-.15.77-.24,1.37-.03.06.02.12,0,.14-.07.01-.03,0-.07-.01-.1-.21-.28-.21-.67-.02-1.14.14-.35.39-.62.48-.71.08.05.25.21.38.35.03.03.08.04.12.03.04-.02.07-.06.07-.11,0,0-.01-.3.16-.48.1-.1.23-.14.41-.13h.01c.18,0,.31.04.41.13.18.18.18.48.18.48,0,.06.04.11.1.11.03,0,.07-.01.09-.04.13-.14.3-.3.38-.35.09.1.31.37.48.7.13.26.31.76.04,1.13-.03.04-.03.1.01.14.04.04.1.04.14.01.31-.22.9-.13,1.36.02.35.12.54.33.59.4-.11.14-.23.27-.36.39-.03.03-.04.08-.03.12.02.04.06.07.1.07,0,0,.3,0,.48.17.1.1.14.24.13.41h0c0,.19-.04.32-.13.42-.18.17-.48.16-.48.16-.06,0-.11.04-.12.1,0,.03.01.07.04.09.15.14.32.31.36.39-.05.07-.23.28-.59.4-.35.11-1.28.28-2.16-.66-.04-.04-.11-.05-.15,0-.01.01-.02.03-.03.05-.12.45-.15.75-.11,1.04.07.53.65,1.33,1.95,1.38.93.03,1.73-.56,2.12-1.22.38.66,1.18,1.26,2.08,1.22,1.31-.05,1.88-.85,1.95-1.38.05-.33,0-.66-.11-1.04-.02-.06-.07-.09-.13-.08-.02,0-.04.02-.05.03-.89.94-1.81.77-2.16.66-.23-.07-.44-.21-.59-.4.11-.14.23-.27.36-.39.04-.04.05-.11,0-.15-.02-.03-.06-.04-.09-.04,0,0-.3.01-.48-.16-.1-.1-.14-.23-.13-.41h0c0-.19.04-.32.13-.42.18-.18.48-.17.48-.17.05,0,.09-.03.1-.07.02-.04,0-.09-.03-.12-.13-.12-.25-.25-.36-.39.06-.07.24-.27.59-.4.45-.17,1.05-.25,1.36-.02.05.03.12.02.15-.03.02-.04.02-.08,0-.12-.2-.27-.19-.6.02-1.14.14-.36.4-.62.49-.7.08.05.25.21.38.36.03.03.08.05.12.03.04-.02.07-.06.07-.11,0,0-.02-.3.16-.48.09-.1.23-.14.41-.13h.01c.17,0,.31.04.41.13.18.18.18.48.18.48,0,.06.05.11.11.11.03,0,.06-.01.08-.03.13-.14.31-.31.39-.36.09.08.35.34.5.7.16.39.27.81.02,1.14-.04.05-.03.12.02.15.04.03.09.03.13,0,.31-.22.91-.15,1.36.02.35.14.53.34.59.4-.05.08-.21.25-.36.39-.03.03-.04.08-.03.12.02.04.06.07.1.07,0,0,.31,0,.48.17.1.1.14.23.13.41h0c0,.19-.04.32-.13.42-.18.18-.48.16-.48.16-.05,0-.09.02-.11.07-.02.04,0,.09.03.12.15.14.31.31.36.39-.15.19-.35.33-.59.4-.35.11-1.28.28-2.16-.66-.04-.04-.11-.05-.15,0-.01.01-.02.03-.03.05-.12.45-.15.75-.11,1.04.07.53.65,1.33,1.95,1.38.9.03,1.7-.57,2.08-1.22.38.65,1.2,1.26,2.12,1.22,1.3-.05,1.88-.85,1.95-1.38.04-.29,0-.6-.11-1.04-.01-.06-.07-.09-.13-.08-.02,0-.04.02-.05.03-.88.94-1.8.77-2.16.66-.23-.07-.44-.21-.59-.4.05-.08.21-.25.36-.39.03-.03.04-.08.03-.12-.02-.04-.06-.07-.11-.07,0,0-.3.01-.48-.16-.1-.1-.14-.23-.13-.41h0c0-.19.04-.32.13-.42.18-.18.48-.17.48-.17.05,0,.09-.02.1-.07.02-.04,0-.09-.03-.12-.13-.12-.25-.25-.36-.39.05-.07.23-.28.59-.4.46-.16,1.05-.25,1.36-.02.04.03.1.03.14-.01.04-.04.04-.1.01-.14-.27-.37-.09-.87.04-1.13.18-.34.39-.61.48-.7.08.05.25.21.38.35.04.04.11.05.15,0,.02-.02.03-.05.03-.08,0,0,0-.3.18-.48.1-.1.24-.14.41-.13h.01c.18,0,.31.04.41.13.18.18.16.48.16.48,0,.05.02.09.07.11.04.02.09,0,.12-.03.13-.14.3-.3.38-.35.09.09.33.36.48.72.2.47.19.86-.02,1.14-.04.05-.02.12.02.15.03.02.07.03.1.01.6-.21.93-.13,1.38.03.35.12.53.33.59.4-.11.14-.23.27-.36.39-.03.03-.05.08-.03.12.02.04.06.07.1.07,0,0,.31,0,.48.18.1.1.14.24.13.41h0c0,.18-.04.32-.13.41-.18.18-.48.16-.48.16-.06,0-.11.04-.12.1,0,.03.01.07.04.09.15.13.31.31.36.39-.15.19-.35.33-.58.4-.36.11-1.28.28-2.16-.66-.03-.03-.07-.04-.11-.03-.04,0-.07.04-.08.08-.12.44-.15.75-.11,1.04.07.53.65,1.33,1.96,1.38.9.03,1.69-.58,2.07-1.25.42.72,1.28,1.22,2.12,1.22.7,0,1.43-.49,1.68-1.12.16-.43.25-.91.23-1.28,0-.04-.03-.08-.07-.1-.04-.01-.09,0-.12.03-.89.94-1.81.77-2.16.66-.37-.12-.54-.33-.58-.4.11-.14.23-.27.36-.39.03-.03.04-.08.03-.12-.02-.04-.06-.07-.11-.07,0,0-.3.01-.48-.16-.1-.09-.14-.23-.13-.4h0c0-.19.04-.32.13-.42.18-.18.48-.18.48-.18.04,0,.09-.03.1-.07.02-.04,0-.09-.03-.12-.13-.12-.25-.24-.36-.38.07-.07.26-.25.59-.41.35-.16,1.05-.2,1.72.02.06.02.12-.01.14-.07,0-.02,0-.04,0-.06h0c-.04-.35-.05-.83.12-1.19.19-.41.47-.66.89-1.01.14.17.36.52.38.6.01.06.07.09.13.08.02,0,.04-.02.05-.03l.09-.1c.28-.32.48-.55,1.22-.58-.46.66-.76,1.85-1.02,2.92ZM41.27,30.76l-2.78-1.49h16.6l-2.78,1.49,2.82,1.48h-16.68l2.82-1.48h0ZM35.1,30.76l2.82,1.48h-16.68l2.82-1.48-2.78-1.49h16.6l-2.78,1.49h0Z"/>
  <path class="cls-1" d="M38.19,29.23l2.85,1.53-2.85,1.5-2.86-1.5,2.86-1.53h0Z"/>
  <path class="cls-6" d="M20.75,29.67l-.9,1.09.93,1.1,1.98-1.09s-2.02-1.1-2.02-1.1Z"/>
  <path class="cls-7" d="M25.2,29.57c-.28,0-.51.21-.51.47s.23.48.51.48.51-.21.51-.48-.23-.47-.51-.47ZM25.21,31.01c-.28,0-.51.21-.51.47s.23.48.51.48.51-.21.51-.48-.23-.47-.51-.47ZM34.04,29.57c-.28,0-.51.21-.51.47s.23.48.51.48.51-.21.51-.48-.23-.47-.51-.47h0ZM34.03,31.01c-.28,0-.51.21-.51.47s.23.48.51.48.51-.21.51-.48-.23-.47-.51-.47Z"/>
  <path class="cls-6" d="M55.63,29.67l.9,1.09-.93,1.1-1.98-1.09,2.02-1.1h0Z"/>
  <path class="cls-1" d="M44.93,31.92c-.68,0-1.23-.52-1.23-1.16s.55-1.16,1.23-1.16h3.66c.68,0,1.23.52,1.23,1.16s-.55,1.16-1.23,1.16c0,0-3.66,0-3.66,0Z"/>
  <path class="cls-7" d="M50.66,30.05c0,.26.23.47.51.47s.51-.21.51-.48-.23-.47-.51-.47-.51.21-.51.47h0ZM50.65,31.48c0,.26.23.48.51.48s.51-.21.51-.48-.23-.47-.51-.47-.51.21-.51.47ZM41.82,30.05c0,.26.23.47.51.47s.51-.21.51-.48-.23-.47-.51-.47-.51.21-.51.47h0ZM41.83,31.48c0,.26.23.48.51.48s.51-.21.51-.48-.23-.47-.51-.47-.51.21-.51.47ZM47.75,24.04c-.43,0-.78-.35-.78-.78,0-.43.35-.78.78-.78s.78.35.78.78c0,.43-.35.78-.78.78h0ZM38.19,24.04c-.43,0-.78-.35-.78-.78,0,0,0,0,0,0,0-.43.35-.78.78-.78s.78.35.78.78-.35.78-.78.78h0ZM28.61,24.04c-.43,0-.78-.35-.78-.78,0,0,0,0,0,0,0-.43.35-.78.78-.78s.78.35.78.78-.35.78-.78.78h0ZM56.34,16.26c.81,0,1.48.67,1.48,1.5s-.66,1.47-1.48,1.47c-.81,0-1.47-.66-1.48-1.47,0-.83.66-1.5,1.48-1.5Z"/>
  <path class="cls-4" d="M55.77,21.47c-.61-.17-1.3-.16-1.71.04-.43.2-.65.44-.69.49-.02.02-.04.05-.04.09,0,.03,0,.12.27.41-.15.03-.29.1-.4.21-.14.14-.2.33-.19.57-.01.24.06.43.2.57.11.1.25.17.39.2-.28.28-.27.37-.27.4,0,.03.01.06.03.08.04.07.25.36.71.51.37.12,1.28.29,2.2-.53-.02.29-.1.63-.21.94-.21.54-.87.98-1.47.98-.94,0-1.72-.65-2.02-1.29-.03-.05-.09-.08-.14-.05-.02.01-.04.03-.05.05-.31.68-1.08,1.35-1.97,1.32-1.16-.04-1.69-.75-1.75-1.19-.03-.22-.01-.46.06-.77.92.87,1.87.7,2.25.58.46-.15.67-.44.71-.51.02-.02.03-.05.03-.08,0-.03,0-.12-.27-.4.15-.03.29-.1.4-.2.14-.14.21-.33.2-.57.01-.24-.06-.43-.2-.57-.11-.11-.25-.18-.4-.21.28-.28.28-.38.27-.41,0-.03-.01-.06-.03-.08-.04-.06-.25-.34-.71-.5-.39-.14-.75-.23-1.26-.1.12-.31.09-.68-.09-1.11-.02-.04-.03-.08-.05-.11l.57-.6v-.04c-.03-1.22-.31-2.41-.82-3.52.37.15.73.3,1.07.46,2.59,1.2,4.47,2.69,5.41,4.23-.04.25-.04.5-.02.72Z"/>
  <path class="cls-7" d="M47.08,13.45c.73,0,1.32.59,1.32,1.31s-.59,1.32-1.32,1.32-1.32-.59-1.32-1.32h0c0-.72.59-1.31,1.32-1.31ZM47.69,16.26c.81,0,1.48.66,1.48,1.47,0,.69-.48,1.28-1.13,1.43-.08-.02-.17-.03-.26-.02-.11,0-.22,0-.33.05-.71-.12-1.24-.73-1.24-1.45,0-.81.66-1.47,1.48-1.47Z"/>
  <path class="cls-3" d="M49.39,17.73c0-.86-.65-1.57-1.49-1.67.33-.21.57-.54.67-.93.82,1.32,1.29,2.84,1.34,4.4l-.46.48c-.11-.18-.25-.35-.4-.51-.02-.03-.06-.04-.09-.04-.03,0-.12-.01-.41.27-.03-.15-.1-.28-.2-.39-.01-.01-.02-.02-.04-.03.65-.26,1.07-.88,1.07-1.57ZM54.87,19.24c-1.89-2.88-4.6-5.22-7.79-6.71.01-.09.01-.19,0-.28,3.79,1.69,6.9,4.56,8.82,8.12l-.03.08c-.29-.44-.62-.84-.99-1.21h0Z"/>
  <path class="cls-7" d="M54.32,14.09c.74,0,1.34.61,1.34,1.36s-.6,1.33-1.34,1.33c-.74,0-1.33-.6-1.34-1.33,0-.75.6-1.36,1.34-1.36h0ZM52.16,12.42c.66,0,1.2.54,1.2,1.21,0,.66-.54,1.2-1.2,1.2-.66,0-1.2-.54-1.2-1.2,0-.66.53-1.21,1.2-1.21h0ZM50.02,11.23c.58,0,1.06.48,1.06,1.06,0,.58-.48,1.05-1.06,1.05-.58,0-1.05-.48-1.05-1.06,0-.58.48-1.05,1.06-1.05ZM47.99,10.45c.51-.02.94.37.96.87.02.51-.37.94-.87.96-.03,0-.06,0-.09,0-.51-.02-.9-.45-.87-.96.02-.47.4-.85.87-.87ZM46.1,9.95c.45,0,.81.37.8.81,0,.22-.09.43-.25.58-.35-.32-.84-.44-1.3-.32-.15-.42.07-.88.48-1.03.09-.03.18-.05.27-.05Z"/>
  <path class="cls-7" d="M45.72,11.2c.64,0,1.16.52,1.16,1.16-.02.64-.55,1.14-1.19,1.13-.61-.02-1.11-.51-1.13-1.13,0-.64.52-1.16,1.16-1.16ZM44.05,9.59c.55,0,1,.45,1,1-.03.55-.5.98-1.05.95-.51-.03-.92-.44-.95-.95,0-.55.45-1,1-1h0ZM42.18,8.72c.46-.02.86.34.88.8.02.46-.34.86-.8.88-.03,0-.05,0-.08,0-.46,0-.84-.38-.84-.84,0-.46.38-.84.84-.84Z"/>
  <path d="M42.85,10.38h0s0,0,0,0c0,0,0,0,0,0Z"/>
  <path class="cls-3" d="M42.18,10.62c.15,0,.29-.03.41-.08l.23.08c.02.67.57,1.2,1.24,1.19.15,0,.29-.03.42-.09-.1.2-.16.42-.16.64,0,.76.62,1.37,1.38,1.37.09,0,.17,0,.26-.03-.28.28-.43.67-.43,1.07,0,.76.56,1.39,1.29,1.51-.8.47-1.07,1.5-.61,2.31.22.37.56.64.97.76-.1.11-.17.24-.2.39-.29-.28-.37-.28-.41-.27-.04,0-.07.02-.09.05-.02.02-.1.11-.2.24l-.6-.46c0-.1-.02-.21-.03-.31-.03-.39-.07-.83-.07-1.25,0-3.6-2.15-6.66-5.11-7.73.28.05.55.1.82.17.19.27.51.45.87.45h0Z"/>
  <path class="cls-4" d="M45.78,21.37c-.47-.12-1.06.06-1.27.13-.46.16-.67.44-.71.5-.02.02-.03.05-.03.08,0,.03,0,.12.27.41-.15.03-.29.1-.4.21-.14.14-.21.33-.2.57-.01.24.06.43.2.57.11.1.25.17.39.2-.28.28-.27.37-.27.4,0,.03.01.06.03.08.04.07.25.36.71.5.37.12,1.32.3,2.25-.58.07.32.09.55.06.77-.06.46-.58,1.15-1.75,1.19-.91.03-1.71-.64-2.01-1.29-.02-.04-.06-.06-.1-.06-.04,0-.08.02-.1.06-.3.66-1.08,1.32-1.98,1.29-1.16-.04-1.69-.75-1.75-1.19-.03-.22-.01-.45.06-.77.93.87,1.87.7,2.25.58.46-.15.67-.44.71-.51.02-.02.03-.05.03-.08,0-.03,0-.12-.27-.4.15-.03.28-.1.39-.2.14-.14.21-.33.2-.57.01-.24-.06-.43-.2-.57-.11-.11-.25-.18-.4-.21.28-.29.28-.38.27-.41,0-.03-.01-.06-.04-.08-.04-.06-.25-.33-.7-.5-.37-.14-.87-.24-1.27-.13.08-.26.04-.53-.04-.79l.68-.35-.65-6.19c1.36.09,2.73.27,4.06.53.42.99.65,2.08.65,3.2,0,.36.06,1.8.06,1.8l.99.8c-.17.37-.22.72-.14,1.01h0ZM36.2,21.37c-.4-.11-.9,0-1.27.13-.45.17-.66.44-.7.5-.02.02-.03.05-.04.08,0,.03,0,.12.27.41-.15.03-.29.1-.4.21-.14.14-.2.33-.19.57-.01.24.06.43.2.57.11.1.25.17.39.2-.28.28-.27.37-.27.4,0,.03.01.06.03.08.04.07.25.36.71.5.37.12,1.32.3,2.25-.58.07.32.09.55.06.77-.11.82-1.13,1.17-1.75,1.19-.9.03-1.67-.62-1.98-1.29-.02-.04-.06-.06-.1-.06-.04,0-.08.02-.1.06-.3.65-1.1,1.32-2.01,1.29-1.16-.04-1.68-.75-1.74-1.19-.03-.22-.01-.45.06-.77.93.87,1.87.7,2.25.58.46-.15.67-.44.71-.5.02-.02.03-.05.03-.08,0-.03,0-.12-.27-.4.15-.03.28-.1.39-.2.14-.14.21-.33.2-.57.01-.24-.06-.43-.2-.57-.11-.11-.25-.18-.4-.21.28-.29.28-.38.28-.41,0-.03-.01-.06-.03-.08-.04-.06-.25-.34-.71-.51-.2-.07-.8-.25-1.27-.13.09-.29.04-.64-.14-1.01l.98-.8v-.05c0-.22.02-.46.03-.71.02-.33.03-.68.03-1.04,0-1.12.22-2.21.65-3.2,1.34-.26,2.69-.44,4.05-.53l-.65,6.19.68.35c-.08.26-.12.53-.04.79Z"/>
  <path class="cls-3" d="M36.63,10l-.03.28c-1.23.33-2.37,1.03-3.29,2.07-1.3,1.46-2.02,3.39-2.02,5.42,0,.35-.02.7-.03,1.03-.01.22-.02.44-.03.67l-.87.71c-.05-.08-.1-.16-.15-.24l.68-.53v-.05c.01-.14.02-.27.04-.41.03-.38.07-.8.07-1.21,0-3.77,2.41-6.94,5.63-7.73h0ZM35.79,20.1l.04-.41.63.35c-.05.08-.09.17-.13.26-.01.02-.02.04-.03.06l-.52-.26h0ZM35.86,19.46l1.1-10.56c.14.07.28.13.43.18.06.13.16.23.27.32-.33.19-.55.54-.55.95s.22.76.56.95c-.46.21-.75.67-.75,1.17,0,.47.25.88.63,1.1-.52.25-.86.77-.86,1.35,0,.59.35,1.1.85,1.34-.63.26-1.04.88-1.04,1.56,0,.71.44,1.32,1.07,1.57-.07.1-.12.21-.15.33-.28-.27-.37-.27-.4-.27-.03,0-.06.02-.09.04-.04.03-.18.16-.33.36,0,0-.73-.4-.73-.4Z"/>
  <path class="cls-7" d="M38.18,13.43c-.12,0-.24.01-.35.04-.42-.16-.69-.56-.7-1,0-.6.48-1.08,1.08-1.08.6,0,1.08.48,1.08,1.08,0,.47-.3.87-.72,1.01-.13-.04-.26-.05-.39-.05ZM39.46,14.93c0,.6-.42,1.1-.98,1.24-.2-.03-.39-.03-.59,0-.58-.13-.99-.65-.99-1.24.02-.71.61-1.26,1.31-1.24.68.02,1.22.56,1.24,1.24h0ZM38.21,11.18c-.08,0-.15,0-.22.02-.39-.1-.66-.45-.66-.85,0-.49.4-.88.88-.88s.88.4.88.88c0,.4-.27.75-.66.85-.07-.01-.15-.02-.22-.02h0ZM38.49,9.29c-.19-.05-.39-.05-.58,0-.34-.16-.49-.56-.34-.9.11-.24.35-.4.62-.4.38,0,.68.3.68.68,0,.26-.15.5-.39.62ZM36.71,17.83c0-.82.66-1.48,1.48-1.48s1.48.66,1.48,1.48c0,.66-.44,1.22-1.05,1.41-.13-.07-.29-.11-.44-.1-.15-.01-.3.02-.43.09-.61-.19-1.03-.76-1.03-1.41Z"/>
  <path class="cls-3" d="M39.88,17.83c0-.7-.44-1.31-1.05-1.56.5-.24.84-.75.84-1.34,0-.56-.32-1.08-.82-1.33.39-.22.66-.64.66-1.12,0-.5-.29-.96-.75-1.17.33-.19.55-.54.55-.95s-.23-.78-.57-.96c.11-.08.19-.19.25-.3.15-.05.29-.11.42-.18l1.1,10.55-.72.4c-.1-.13-.21-.25-.33-.36-.02-.02-.05-.04-.09-.04-.03,0-.12,0-.41.27-.03-.12-.08-.24-.15-.33.65-.25,1.07-.88,1.08-1.57ZM40.54,19.7l.04.41-.52.26-.02-.06c-.04-.09-.08-.18-.13-.27,0,0,.63-.34.63-.34ZM45.15,19.46c0-.2-.06-1.34-.06-1.69,0-2.03-.72-3.96-2.02-5.42-.93-1.04-2.06-1.74-3.29-2.07l-.03-.27c3.22.79,5.64,3.96,5.64,7.73,0,.43.04.87.07,1.27l.03.36v.05s.69.53.69.53c-.05.07-.1.15-.15.24,0,0-.87-.71-.87-.71Z"/>
  <path class="cls-7" d="M40.47,8.4c.38,0,.68.31.68.68s-.31.68-.68.68c-.38,0-.68-.31-.68-.68,0-.38.31-.68.68-.68,0,0,0,0,0,0Z"/>
  <path class="cls-3" d="M36.93,2.75c-.08,0-.16.03-.23.07v-.87c.07.04.15.06.23.07h.82v-.91c0-.08-.02-.15-.06-.22h.97c-.04.08-.07.16-.07.25v.88h.82c.08,0,.17-.03.23-.07v.87c-.07-.04-.15-.06-.24-.07h-.82v1.2c-.27-.04-.54-.04-.81,0v-1.2h-.85s0,0,0,0Z"/>
  <path class="cls-5" d="M35.76,6.57c0-1.34,1.09-2.43,2.43-2.43,1.34,0,2.43,1.08,2.43,2.43,0,1.02-.64,1.9-1.55,2.26.08-.49-.25-.96-.74-1.04-.49-.08-.96.25-1.04.74-.02.1-.02.2,0,.3-.93-.36-1.54-1.26-1.55-2.26Z"/>
  <path class="cls-7" d="M35.89,8.4c.38,0,.69.31.69.68s-.31.68-.68.68-.68-.31-.68-.68h0c0-.38.31-.68.68-.68Z"/>
  <path class="cls-3" d="M35.89,10c-2.96,1.07-5.11,4.13-5.11,7.73,0,.4-.04.82-.07,1.19l-.03.36-.6.46c-.06-.08-.13-.16-.2-.24-.02-.03-.06-.05-.09-.05-.03,0-.12-.01-.41.27-.03-.15-.1-.28-.21-.39.7-.22,1.18-.87,1.18-1.61,0-.62-.34-1.16-.83-1.45.74-.12,1.29-.76,1.29-1.51,0-.4-.16-.78-.44-1.07.75.15,1.47-.34,1.61-1.09.02-.09.03-.17.03-.26,0-.23-.06-.45-.16-.64.63.25,1.33-.06,1.58-.68.05-.13.08-.27.09-.41.08-.03.16-.06.24-.09.46.19.98.04,1.27-.37.28-.07.57-.12.85-.17h0Z"/>
  <path class="cls-4" d="M26.68,21.43c-.52-.13-.87-.03-1.26.1-.46.16-.67.44-.71.5-.02.02-.03.05-.03.08,0,.03,0,.12.27.41-.15.03-.29.1-.4.21-.14.14-.21.33-.2.57-.01.24.06.43.2.57.11.1.25.17.39.2-.28.28-.27.37-.27.4,0,.03.01.06.03.08.04.07.25.36.71.51.38.12,1.32.29,2.25-.58.07.32.09.55.06.77-.06.44-.59,1.15-1.75,1.19-.89.03-1.67-.64-1.98-1.32-.02-.04-.06-.06-.1-.06-.04,0-.08.03-.1.06-.29.64-1.08,1.29-2.01,1.29-.61,0-1.27-.44-1.48-.98-.11-.3-.19-.62-.21-.94.91.82,1.83.65,2.2.53.46-.15.67-.44.71-.51.02-.02.03-.05.03-.08,0-.03,0-.12-.27-.4.15-.03.28-.1.39-.2.14-.14.21-.33.2-.57.01-.24-.06-.43-.2-.57-.11-.11-.25-.18-.4-.21.28-.28.27-.37.27-.41,0-.03-.02-.06-.04-.09-.04-.05-.26-.29-.69-.49-.42-.19-1.1-.2-1.71-.04.02-.23.02-.5-.03-.75.95-1.54,2.83-3.01,5.39-4.2.36-.17.73-.33,1.11-.48-.51,1.11-.79,2.31-.82,3.53v.05s.56.6.56.6c-.02.04-.03.08-.05.11-.18.43-.21.8-.09,1.1Z"/>
  <path class="cls-3" d="M29.27,12.25s0,.07,0,.11c0,.06,0,.12.01.18-3.19,1.49-5.89,3.82-7.78,6.69-.37.37-.7.77-.99,1.2,0-.03-.02-.05-.03-.08,1.91-3.55,5.02-6.41,8.79-8.1ZM26.48,19.53c.05-1.55.5-3.05,1.32-4.37.1.37.34.69.66.89-.85.1-1.48.82-1.49,1.67,0,.72.46,1.34,1.09,1.58l-.03.03c-.1.11-.17.24-.2.39-.28-.28-.37-.27-.41-.27-.03,0-.07.02-.09.04-.15.15-.29.32-.4.51l-.45-.48h0Z"/>
  <path class="cls-7" d="M30.59,14.77c0,.73-.59,1.32-1.32,1.32s-1.32-.59-1.32-1.32h0c0-.73.59-1.32,1.32-1.32.73,0,1.31.59,1.32,1.32ZM27.18,17.73c0-.81.66-1.47,1.48-1.47s1.48.66,1.48,1.47c0,.72-.53,1.33-1.22,1.45-.1-.03-.21-.05-.32-.04-.09,0-.18,0-.27.03-.67-.15-1.15-.75-1.15-1.44ZM34.17,8.72c.46-.02.86.34.88.8.02.46-.34.86-.8.88-.03,0-.05,0-.08,0-.46.03-.87-.32-.9-.78-.03-.46.32-.87.78-.9.04,0,.08,0,.12,0ZM32.31,9.59c.55,0,1,.45,1,1-.03.55-.5.98-1.05.95-.51-.03-.92-.44-.95-.95,0-.55.45-1,1-1h0ZM31.8,12.35c0,.64-.52,1.16-1.16,1.16-.64,0-1.16-.52-1.16-1.16,0-.64.52-1.16,1.16-1.16.64,0,1.16.52,1.16,1.16Z"/>
  <path class="cls-7" d="M30.26,9.95c.45,0,.8.37.8.81,0,.09-.02.18-.05.27-.46-.13-.95-.01-1.3.31-.16-.15-.25-.36-.25-.58,0-.45.36-.81.8-.81h0ZM28.37,10.45c.51,0,.92.41.92.92s-.41.92-.92.92c-.51,0-.92-.41-.92-.92,0-.51.41-.92.92-.92h0ZM26.34,11.23c.59,0,1.06.48,1.06,1.06,0,.58-.47,1.06-1.06,1.06s-1.06-.47-1.06-1.06c0-.58.47-1.06,1.06-1.06ZM24.2,12.42c.66,0,1.2.54,1.2,1.21s-.54,1.2-1.2,1.2-1.2-.54-1.2-1.2c0-.66.53-1.21,1.2-1.21h0,0ZM22.04,14.09c.74,0,1.34.61,1.34,1.36s-.6,1.33-1.34,1.33c-.74,0-1.33-.6-1.34-1.33,0-.75.6-1.36,1.34-1.36h0ZM18.55,17.76c0-.83.66-1.5,1.48-1.5s1.48.67,1.48,1.5-.66,1.47-1.48,1.47c-.81,0-1.47-.66-1.48-1.47ZM18.86,23.99c-.18.04-.38.02-.54-.07-.38-.2-.53-.68-.32-1.06.09-.17.25-.31.44-.37.09.05.33.23.46.64.13.42.02.75-.03.86Z"/>
  <path class="cls-3" d="M55.88,32.96c0,.23-.2.5-.46.5H20.95c-.26,0-.46-.27-.46-.5s.2-.5.46-.5h34.48c.27,0,.46.26.46.5h0ZM55.94,28.62c0,.24-.21.43-.46.43H20.89c-.25,0-.46-.19-.46-.43s.2-.43.46-.43h17.29s17.3,0,17.3,0c.26,0,.46.18.46.43h0Z"/>
  <path class="cls-7" d="M58.37,22.85c.1.18.12.39.07.59-.06.2-.2.38-.38.48-.16.09-.36.12-.54.07-.12-.27-.13-.58-.03-.86.13-.41.37-.59.46-.64.18.06.33.19.43.36Z"/>
  <path class="cls-5" d="M35.7,7.08v-.03s0,.02,0,.03ZM35.65,6.51v.06-.06Z"/>
  <path class="cls-3" d="M35.7,7.09s0,0,0,0h0ZM40.71,6.89c.01-.1.02-.21.02-.32h0c0,.11,0,.21-.02.32Z"/>
  <path class="cls-3" d="M40.71,6.89c.04-.27.03-.55-.03-.82h-1.98v-1.98s-.26-.05-.5-.05c-.22,0-.54.05-.54.05v1.98h-1.97v.04c-.03.13-.05.26-.05.4v.06c0,.16.01.32.04.48,0,.01,0,.02,0,.03h0s4.98,0,4.98,0c.01-.06.03-.13.03-.2Z"/>
  <path class="cls-1" d="M38.19,29.23l2.85,1.53-2.85,1.5-2.86-1.5,2.86-1.53h0Z"/>
  <path class="cls-2" d="M39.97,30.76l-1.81-.98-1.82.98,1.82.98,1.81-.98Z"/>
  <path class="cls-1" d="M31.44,31.92c.68,0,1.23-.52,1.23-1.16s-.55-1.16-1.23-1.16h-3.66c-.68,0-1.23.52-1.23,1.16s.55,1.16,1.23,1.16h3.66Z"/>
  <path d="M31.44,32.03h-3.66c-.74,0-1.34-.57-1.34-1.27s.6-1.27,1.34-1.27h3.66c.74,0,1.34.57,1.34,1.27s-.6,1.27-1.34,1.27ZM27.79,29.7c-.62,0-1.12.47-1.12,1.06s.5,1.05,1.12,1.05h3.66c.62,0,1.13-.47,1.13-1.05s-.51-1.06-1.13-1.06h-3.66ZM25.2,30.74c-.4,0-.73-.31-.73-.69s.33-.69.73-.69.73.31.73.69-.33.69-.73.69ZM25.2,29.57c-.28,0-.51.21-.51.47s.23.48.51.48.51-.21.51-.48-.23-.47-.51-.47h0ZM25.21,32.18c-.4,0-.72-.31-.72-.69s.32-.69.72-.69.72.31.72.69-.32.69-.72.69ZM25.21,31.01c-.28,0-.51.21-.51.47s.23.48.51.48.51-.21.51-.48-.23-.47-.51-.47ZM34.04,30.74c-.4,0-.72-.31-.72-.69s.32-.69.72-.69.72.31.72.69-.32.69-.72.69ZM34.04,29.57c-.28,0-.51.21-.51.47s.23.48.51.48.51-.21.51-.48-.23-.47-.51-.47h0ZM34.03,32.18c-.4,0-.72-.31-.72-.69s.32-.69.72-.69.73.31.73.69-.33.69-.73.69ZM34.03,31.01c-.28,0-.51.21-.51.47s.23.48.51.48.51-.21.51-.48-.23-.47-.51-.47Z"/>
  <path class="cls-5" d="M27.9,29.99h3.44c.43,0,.78.35.78.78v-.02c0,.43-.35.77-.78.78h-3.44c-.43,0-.78-.35-.78-.78,0,0,0,0,0,0v.02c0-.43.35-.78.78-.78Z"/>
  <path class="cls-1" d="M44.93,31.92c-.68,0-1.23-.52-1.23-1.16s.55-1.16,1.23-1.16h3.66c.68,0,1.23.52,1.23,1.16s-.55,1.16-1.23,1.16c0,0-3.66,0-3.66,0Z"/>
  <path d="M43.58,30.76c0-.7.6-1.27,1.34-1.27h3.66c.74,0,1.34.57,1.34,1.27s-.6,1.27-1.34,1.27h-3.66c-.74,0-1.34-.57-1.34-1.27ZM44.93,29.7c-.62,0-1.13.47-1.13,1.06s.51,1.05,1.13,1.05h3.66c.62,0,1.12-.47,1.12-1.05s-.5-1.06-1.12-1.06c0,0-3.66,0-3.66,0ZM50.44,30.05c0-.38.32-.69.73-.69s.72.31.72.69-.33.69-.72.69-.73-.31-.73-.69ZM50.66,30.05c0,.26.23.47.51.47s.51-.21.51-.48-.23-.47-.51-.47-.51.21-.51.47h0ZM50.44,31.48c0-.38.32-.69.72-.69s.72.31.72.69-.32.69-.72.69-.72-.31-.72-.69h0ZM50.65,31.48c0,.26.23.48.51.48s.51-.21.51-.48-.23-.47-.51-.47-.51.21-.51.47ZM41.61,30.05c0-.38.32-.69.72-.69s.72.31.72.69-.32.69-.72.69-.72-.31-.72-.69ZM41.82,30.05c0,.26.23.47.51.47s.51-.21.51-.48-.23-.47-.51-.47-.51.21-.51.47h0ZM41.61,31.48c0-.38.33-.69.73-.69s.72.31.72.69-.32.69-.72.69-.73-.31-.73-.69h0ZM41.83,31.48c0,.26.23.48.51.48s.51-.21.51-.48-.23-.47-.51-.47-.51.21-.51.47Z"/>
  <path class="cls-5" d="M48.47,29.99h-3.44c-.43,0-.78.35-.78.78v-.02c0,.43.35.78.78.78h3.44c.43,0,.78-.35.78-.78v.02c0-.43-.35-.78-.78-.78Z"/>
  <path d="M47.48,22.01c.06.02.12-.02.14-.07.05-.18.1-.35.13-.52.03.17.07.35.13.52.02.06.08.09.13.07.06-.02.09-.08.07-.13,0,0,0,0,0,0-.14-.5-.22-1.01-.23-1.53,0-.06-.04-.11-.1-.11s-.11.04-.11.1h0s0,.8-.23,1.53c-.02.06.01.12.07.14ZM48.75,23.26c0-.55-.45-1-1-1s-1,.45-1,1h0c0,.55.45,1,1,1s1-.45,1-1h0ZM47.75,24.04c-.43,0-.78-.35-.78-.78,0-.43.35-.78.78-.78s.78.35.78.78c0,.43-.35.78-.78.78h0ZM46.42,23.39c-.17-.05-.35-.09-.53-.13.17-.03.35-.07.53-.13.06-.02.09-.08.07-.13,0,0,0,0,0,0-.02-.06-.08-.09-.14-.07-.5.14-1.02.22-1.53.23-.06,0-.11.05-.11.1,0,.06.05.1.11.1,0,0,.8,0,1.53.23.06.02.12-.02.14-.07.02-.04-.01-.11-.07-.12h0ZM49.07,23.13c.18.05.35.1.53.13-.17.03-.35.07-.53.13-.06.02-.09.08-.07.14.01.04.05.07.1.07.01,0,.02,0,.03,0,.5-.14,1.02-.22,1.53-.23.06,0,.11-.05.11-.11,0-.06-.05-.1-.11-.1,0,0-.8,0-1.53-.23-.06-.02-.12.02-.14.07-.02.05.01.11.07.12h0ZM37.93,22.01c.06.02.12-.02.14-.07.05-.18.1-.35.13-.52.03.17.07.35.13.52.02.06.08.09.14.07.06-.02.09-.08.07-.14-.14-.5-.22-1.01-.23-1.53,0-.06-.05-.11-.11-.11,0,0,0,0,0,0h-.02c-.05,0-.09.05-.09.11,0,0,0,.8-.23,1.53-.02.06.01.12.07.14,0,0,0,0,0,0ZM38.19,22.26c-.55,0-1,.45-1,1,0,.55.45,1,1,1s1-.45,1-1h0c0-.55-.45-1-1-1h0ZM38.19,24.04c-.43,0-.78-.35-.78-.78,0,0,0,0,0,0,0-.43.35-.78.78-.78s.78.35.78.78-.35.78-.78.78c0,0,0,0,0,0h0ZM36.86,23.39c-.17-.05-.35-.09-.53-.13.17-.03.35-.07.53-.13.06-.02.09-.08.07-.13,0,0,0,0,0,0-.02-.06-.08-.09-.13-.07,0,0,0,0,0,0-.5.14-1.01.22-1.53.23-.06,0-.11.05-.11.1,0,.06.05.1.11.1,0,0,.8,0,1.53.23.06.02.12-.01.14-.07,0,0,0,0,0,0,.02-.05-.01-.11-.07-.12ZM39.51,23.13c.18.05.36.09.53.13-.18.03-.35.08-.53.13-.06.01-.09.07-.08.13.01.06.07.09.13.08,0,0,.01,0,.02,0,.5-.14,1.02-.22,1.53-.23.06,0,.11-.05.11-.11v-.02c-.01-.05-.06-.09-.11-.09,0,0-.8,0-1.53-.23-.06-.02-.12.02-.14.07-.02.06.02.12.07.13ZM28.35,22.01c.06.02.12-.01.14-.07,0,0,0,0,0,0,.05-.17.1-.35.13-.52.03.17.07.35.13.52.02.06.08.09.14.07.06-.02.09-.08.07-.14h0c-.14-.5-.22-1.01-.23-1.53,0-.06-.05-.11-.11-.11h-.02c-.05,0-.09.05-.09.11,0,0,0,.8-.23,1.53-.02.06.01.12.07.14ZM28.61,22.26c-.55,0-1,.45-1,1,0,.55.45,1,1,1s1-.45,1-1h0c0-.55-.45-1-1-1h0ZM28.61,24.04c-.43,0-.78-.35-.78-.78,0,0,0,0,0,0,0-.43.35-.78.78-.78s.78.35.78.78-.35.78-.78.78h0ZM27.28,23.39c-.17-.05-.35-.09-.53-.13.17-.03.35-.07.53-.13.06-.02.09-.08.07-.13,0,0,0,0,0,0-.02-.06-.08-.09-.13-.07,0,0,0,0,0,0-.5.14-1.01.22-1.53.23-.06,0-.11.05-.11.1,0,.06.05.1.11.1,0,0,.8,0,1.53.23.06.02.12-.01.14-.07,0,0,0,0,0,0,.02-.05-.01-.11-.07-.12ZM29.94,23.13c.18.05.36.09.53.13-.17.03-.35.07-.53.13-.06.01-.09.07-.08.13.01.06.07.09.13.08,0,0,.01,0,.02,0,.5-.14,1.02-.22,1.53-.23.06,0,.11-.05.11-.11v-.02c-.01-.05-.06-.09-.11-.09,0,0-.8,0-1.53-.23-.06-.02-.12.02-.14.07-.02.06.02.12.07.13ZM21.24,23.37c.06,0,.11-.05.11-.11,0-.06-.05-.11-.11-.11h0s-.8,0-1.53-.22c-.06-.02-.12.01-.14.07-.02.06.01.12.07.14.18.05.35.09.52.13-.17.03-.35.07-.53.13-.06.01-.09.07-.08.13.01.06.07.09.13.08,0,0,.01,0,.02,0,.5-.14,1.02-.22,1.54-.23ZM56.8,23c-.02-.06-.08-.09-.14-.07-.5.14-1.01.22-1.53.22-.05,0-.1.04-.11.09v.02c0,.06.05.11.11.11,0,0,.8,0,1.53.23.01,0,.02,0,.03,0,.06,0,.11-.05.11-.11,0-.05-.03-.09-.08-.1-.17-.05-.35-.09-.52-.13.17-.03.35-.07.53-.13.06-.02.09-.08.07-.13,0,0,0,0,0,0h0Z"/>
  <path d="M59.21,19.2s-.06-.07-.1-.07c-1.01,0-1.28.28-1.59.64-.11-.19-.23-.37-.37-.54.52-.29.87-.84.87-1.47,0-.95-.76-1.72-1.69-1.72-.23,0-.45.05-.65.13.41-.76.12-1.71-.65-2.12-.22-.12-.47-.18-.72-.18-.3,0-.59.09-.83.24.27-.74-.11-1.55-.84-1.83-.15-.06-.32-.09-.48-.09-.34,0-.64.12-.89.32.13-.7-.34-1.36-1.03-1.49-.07-.01-.15-.02-.22-.02-.35,0-.67.14-.9.37v-.02c0-.63-.51-1.14-1.13-1.14-.35,0-.67.16-.88.41-.06-.52-.49-.91-1.01-.91-.38,0-.71.21-.88.52-.18-.65-.86-1.02-1.51-.84-.18.05-.34.14-.48.26.07-.58-.35-1.11-.93-1.17-.37-.04-.73.11-.96.4-.1-.49-.57-.8-1.06-.71,0,0-.02,0-.02,0,.37-.47.58-1.05.58-1.65,0-1.22-.85-2.29-2.04-2.57v-1.03h.61c.1,0,.23.1.27.13l.18.17v-1.77l-.18.17s-.17.14-.27.14h-.6v-.67c0-.1.1-.25.13-.29l.15-.18h-1.87l.18.18s.13.16.13.25v.69h-.6c-.1,0-.23-.1-.27-.14l-.18-.17v1.77s.18-.17.18-.17c.04-.04.17-.13.27-.13h.63v1.03c-1.19.29-2.02,1.35-2.03,2.57,0,.63.22,1.2.59,1.65-.48-.13-.98.16-1.11.64,0,.02,0,.04-.01.06-.36-.46-1.03-.54-1.49-.18-.25.2-.4.5-.41.83,0,.04,0,.08,0,.13-.5-.45-1.27-.4-1.72.1-.12.14-.21.3-.26.47-.18-.32-.52-.51-.88-.51-.52,0-.95.4-1.01.91-.4-.48-1.11-.56-1.6-.16-.26.22-.42.54-.42.88v.02c-.24-.24-.56-.37-.9-.37-.71,0-1.28.58-1.27,1.28,0,.07,0,.15.02.22-.25-.21-.56-.32-.89-.32-.79,0-1.42.64-1.41,1.43,0,.17.03.33.09.49-.25-.16-.53-.24-.83-.24-.86,0-1.56.71-1.55,1.57,0,.25.06.5.18.73-.2-.09-.43-.13-.65-.13-.93,0-1.69.77-1.69,1.71,0,.64.36,1.2.88,1.48-.14.17-.26.35-.37.54-.31-.36-.58-.64-1.59-.64-.04,0-.08.03-.1.07-.02.04,0,.09.02.12.52.56.85,1.89,1.12,2.99-.51.22-.74.8-.52,1.31.18.42.61.66,1.06.59.29.89.53,1.49.99,2.42.25.49.54.94.88,1.37-.28.07-.49.33-.49.62,0,.33.26.6.59.64l-1.24,1.5,1.26,1.49c-.33.07-.56.4-.56.7,0,.34.29.72.68.72h34.48c.39,0,.68-.38.68-.72,0-.31-.22-.64-.56-.7l1.26-1.49-1.23-1.5c.33-.04.59-.31.59-.64,0-.3-.2-.55-.49-.62.21-.25.57-.76.88-1.37.47-.94.71-1.55,1-2.42.21.03.43,0,.62-.11.24-.13.41-.35.49-.61.14-.48-.1-1-.57-1.19.27-1.09.6-2.42,1.12-2.99.03-.03.04-.08.02-.12h0ZM56.34,16.26c.81,0,1.48.67,1.48,1.5s-.66,1.47-1.48,1.47c-.81,0-1.47-.66-1.48-1.47,0-.83.66-1.5,1.48-1.5ZM55.77,21.47c-.61-.17-1.3-.16-1.71.04-.44.2-.65.44-.69.49-.02.02-.04.05-.04.09,0,.03,0,.12.27.41-.15.03-.29.1-.4.21-.14.14-.2.33-.19.57-.01.24.06.43.2.57.11.1.25.17.39.2-.28.28-.27.37-.27.4,0,.03.01.06.03.08.04.07.25.36.71.51.37.12,1.28.29,2.2-.53-.03.32-.1.64-.21.94-.21.54-.87.98-1.47.98-.94,0-1.72-.65-2.02-1.29-.03-.05-.09-.08-.14-.05-.02.01-.04.03-.05.05-.31.68-1.08,1.35-1.97,1.32-1.16-.04-1.69-.75-1.75-1.19-.03-.22-.01-.46.06-.77.92.87,1.87.7,2.25.58.46-.15.67-.44.71-.51.02-.02.03-.05.03-.08,0-.03,0-.12-.27-.4.15-.03.29-.1.4-.2.14-.14.21-.33.2-.57.01-.24-.06-.43-.2-.57-.11-.11-.25-.18-.4-.21.28-.28.28-.38.27-.41,0-.03-.01-.06-.03-.08-.04-.06-.25-.34-.71-.5-.39-.14-.75-.23-1.26-.1.12-.31.09-.68-.09-1.11-.02-.04-.03-.08-.05-.11l.57-.6v-.04c-.03-1.22-.31-2.41-.82-3.52.37.15.73.3,1.07.46,2.59,1.2,4.47,2.69,5.41,4.23-.04.25-.04.5-.02.72ZM47.05,13.24c-.11,0-.21.02-.32.04.06-.06.11-.13.15-.2,0,0,.17.16.17.16ZM46.8,11.51l.06-.06c0,.07.01.13.03.19-.03-.04-.06-.09-.09-.13ZM47.08,13.45c.73,0,1.32.59,1.32,1.31s-.59,1.32-1.32,1.32-1.32-.59-1.32-1.32.59-1.31,1.32-1.31ZM47.69,16.26c.81,0,1.48.66,1.48,1.47,0,.69-.48,1.28-1.13,1.43-.08-.02-.17-.03-.26-.02-.11,0-.22,0-.33.05-.71-.12-1.24-.73-1.24-1.45,0-.81.66-1.47,1.48-1.47ZM49.39,17.73c0-.86-.65-1.57-1.49-1.67.33-.21.57-.54.67-.93.82,1.32,1.29,2.84,1.34,4.4l-.46.48c-.11-.18-.25-.35-.4-.51-.02-.03-.06-.04-.09-.04-.03,0-.12-.01-.41.27-.03-.15-.1-.28-.2-.39-.01-.01-.02-.02-.04-.03.65-.26,1.07-.88,1.07-1.57ZM54.87,19.24c-1.89-2.88-4.6-5.22-7.79-6.71.01-.09.01-.19,0-.28,3.79,1.69,6.9,4.56,8.82,8.12l-.03.08c-.29-.44-.62-.84-.99-1.21h0ZM50.89,14.23c-.31-.23-.63-.46-.95-.67.3.02.61-.07.85-.25-.07.31-.04.64.1.92h0ZM52.83,15.91c-.32-.32-.65-.62-.99-.92.35.08.73.02,1.04-.16-.14.34-.16.72-.05,1.08ZM54.66,18.02c-.29-.39-.6-.77-.92-1.13.36.14.77.15,1.13,0-.2.34-.28.74-.22,1.13ZM55.48,19.21c.36.21.77.28,1.18.2-.26.23-.48.44-.64.72-.17-.31-.35-.62-.54-.92ZM54.32,14.09c.74,0,1.34.61,1.34,1.36s-.6,1.33-1.34,1.33c-.74,0-1.33-.6-1.34-1.33,0-.75.6-1.36,1.34-1.36ZM52.16,12.42c.66,0,1.2.54,1.2,1.21,0,.66-.54,1.2-1.2,1.2-.66,0-1.2-.54-1.2-1.2,0-.66.53-1.21,1.2-1.21h0,0ZM50.02,11.23c.58,0,1.06.48,1.06,1.06,0,.58-.48,1.05-1.06,1.05-.58,0-1.05-.48-1.05-1.06,0-.58.48-1.05,1.06-1.05ZM48.11,12.49c.25-.03.47-.13.64-.29-.02.26.04.51.17.73-.27-.15-.54-.3-.82-.44h0ZM47.99,10.45c.51-.02.94.37.96.87.02.51-.37.94-.87.96-.03,0-.06,0-.09,0-.51-.02-.9-.45-.87-.96.02-.47.4-.85.87-.87ZM47.03,12.75c2.82,1.32,5.26,3.32,7.11,5.82-1.29-1.08-3-2.04-4.98-2.81-.17-.33-.35-.65-.55-.96v-.03c0-.73-.51-1.35-1.23-1.5-.13-.13-.26-.26-.4-.39.02-.04.03-.09.05-.13ZM46.1,9.95c.45,0,.81.37.8.81,0,.22-.09.43-.25.58-.35-.32-.84-.44-1.3-.32-.15-.42.07-.88.48-1.03.09-.03.18-.05.27-.05ZM45.72,11.2c.64,0,1.16.52,1.16,1.16-.02.64-.55,1.14-1.19,1.13-.61-.02-1.11-.51-1.13-1.13,0-.64.52-1.16,1.16-1.16ZM44.05,9.59c.55,0,1,.45,1,1-.03.55-.5.98-1.05.95-.51-.03-.92-.44-.95-.95,0-.55.45-1,1-1ZM42.18,8.72c.46-.02.86.34.88.8.02.46-.34.86-.8.88-.03,0-.05,0-.08,0-.47,0-.84-.38-.84-.84,0-.46.38-.84.84-.84ZM42.85,10.38h0s0,0,0,0h0ZM42.18,10.62c.15,0,.29-.03.41-.08l.23.08c.02.67.57,1.2,1.24,1.19.15,0,.29-.03.42-.09-.1.19-.16.41-.16.64,0,.76.62,1.37,1.38,1.37.09,0,.17,0,.26-.03-.28.28-.43.67-.44,1.07,0,.76.56,1.39,1.29,1.51-.8.47-1.07,1.5-.61,2.31.22.37.56.64.97.76-.1.11-.17.24-.2.39-.29-.28-.37-.28-.41-.27-.04,0-.07.02-.09.05-.02.02-.1.11-.2.24l-.6-.46c0-.1-.02-.21-.03-.31-.03-.39-.07-.83-.07-1.25,0-3.6-2.15-6.66-5.11-7.73.28.05.55.1.82.17.19.27.51.45.87.45ZM45.78,21.37c-.47-.12-1.06.06-1.27.13-.46.16-.67.44-.71.5-.02.02-.03.05-.03.08,0,.03,0,.12.27.41-.15.03-.29.1-.4.21-.14.14-.21.33-.2.57-.01.24.06.43.2.57.11.1.25.17.39.2-.28.28-.27.37-.27.4,0,.03.01.06.03.08.04.07.25.36.71.5.37.12,1.32.3,2.25-.58.07.32.09.55.06.77-.06.46-.58,1.15-1.75,1.19-.91.03-1.71-.64-2.01-1.29-.02-.04-.06-.06-.1-.06-.04,0-.08.02-.1.06-.3.66-1.08,1.32-1.98,1.29-1.16-.04-1.69-.75-1.75-1.19-.03-.22-.01-.45.06-.77.93.87,1.87.7,2.25.58.46-.15.67-.44.71-.51.02-.02.03-.05.03-.08,0-.03,0-.12-.27-.4.15-.03.28-.1.39-.2.14-.14.21-.33.2-.57.01-.24-.06-.43-.2-.57-.11-.11-.25-.18-.4-.21.28-.29.28-.38.27-.41,0-.03-.01-.06-.04-.08-.04-.06-.25-.33-.7-.5-.37-.14-.87-.24-1.27-.13.08-.26.04-.53-.04-.79l.68-.35-.65-6.19c1.36.09,2.73.27,4.06.53.42.99.65,2.08.65,3.2,0,.36.06,1.8.06,1.8l.99.8c-.17.37-.22.72-.14,1.01ZM36.2,21.37c-.39-.11-.9,0-1.27.13-.45.17-.66.44-.7.5-.02.02-.03.05-.04.08,0,.03,0,.12.27.41-.15.03-.29.1-.4.21-.14.14-.2.33-.19.57-.01.24.06.43.2.57.11.1.25.17.39.2-.28.28-.27.37-.27.4,0,.03.01.06.03.08.04.07.25.36.71.5.37.12,1.32.3,2.25-.58.07.32.09.55.06.77-.11.82-1.13,1.17-1.75,1.19-.9.03-1.67-.62-1.98-1.29-.02-.05-.09-.08-.14-.05-.02.01-.04.03-.05.05-.3.65-1.1,1.32-2.01,1.29-1.16-.04-1.68-.75-1.74-1.19-.03-.22-.01-.45.06-.77.93.87,1.87.7,2.25.58.46-.15.67-.44.71-.5.02-.02.03-.05.03-.08,0-.03,0-.12-.27-.4.15-.03.28-.1.39-.2.14-.14.21-.33.2-.57.01-.24-.06-.43-.2-.57-.11-.11-.25-.18-.4-.21.28-.29.28-.38.28-.41,0-.03-.01-.06-.03-.08-.04-.06-.25-.34-.71-.51-.2-.07-.8-.25-1.27-.13.09-.29.04-.64-.14-1.01l.98-.8v-.05c0-.22.02-.46.03-.71.02-.33.03-.68.03-1.04,0-1.12.22-2.21.65-3.2,1.34-.26,2.69-.44,4.05-.53l-.65,6.19.68.35c-.08.26-.12.53-.04.79h0ZM36.63,10l-.03.28c-1.23.33-2.37,1.03-3.29,2.07-1.3,1.46-2.02,3.39-2.02,5.42,0,.35-.02.7-.03,1.03-.01.24-.02.46-.03.67l-.87.71c-.05-.08-.1-.16-.15-.24l.68-.53v-.05c.01-.14.02-.27.04-.41.03-.38.07-.8.07-1.21,0-3.77,2.42-6.94,5.63-7.73h0ZM36.56,9.69c.05-.05.09-.11.12-.17l-.02.16s-.11.01-.11.01ZM36.58,10.51l-.34,3.31c-1.33.08-2.65.25-3.96.5.31-.66.72-1.28,1.2-1.82.88-.98,1.94-1.66,3.11-1.98ZM35.79,20.1l.04-.41.63.35c-.05.08-.09.17-.13.26-.01.02-.02.04-.03.06l-.52-.26ZM35.86,19.46l1.1-10.56c.14.07.28.13.43.18.06.13.16.23.27.32-.33.19-.55.54-.55.95s.22.76.56.95c-.46.21-.75.67-.75,1.17,0,.47.25.88.63,1.1-.52.25-.86.77-.86,1.35,0,.59.35,1.1.85,1.34-.63.26-1.04.88-1.04,1.56,0,.71.44,1.32,1.07,1.57-.07.1-.12.21-.15.33-.28-.27-.37-.27-.4-.27-.03,0-.06.02-.09.04-.04.03-.18.16-.33.36l-.73-.4h0ZM36.73,8.77l.02.02v.04s-.02-.04-.02-.06h0ZM38.18,13.43c-.12,0-.24.01-.35.04-.42-.16-.69-.56-.7-1,0-.6.48-1.08,1.08-1.08.6,0,1.08.48,1.08,1.08,0,.47-.3.87-.72,1.01-.13-.04-.26-.05-.39-.05ZM39.46,14.93c0,.6-.42,1.1-.98,1.24-.2-.03-.39-.03-.59,0-.58-.13-.99-.65-.99-1.24,0-.71.57-1.28,1.28-1.28.71,0,1.28.57,1.28,1.28h0ZM38.21,11.18c-.08,0-.15,0-.22.02-.39-.1-.66-.45-.66-.85,0-.49.4-.88.88-.88s.88.4.88.88h0c0,.4-.27.75-.66.85-.07-.01-.15-.02-.22-.02ZM38.49,9.29c-.19-.05-.39-.05-.58,0-.34-.16-.49-.56-.34-.9.11-.24.35-.4.62-.4.38,0,.68.3.68.68,0,.26-.15.5-.39.62ZM36.71,17.83c0-.82.66-1.48,1.48-1.48s1.48.66,1.48,1.48c0,.66-.44,1.22-1.05,1.41-.13-.07-.29-.11-.44-.1-.15-.01-.3.02-.43.09-.61-.19-1.03-.76-1.03-1.41h0ZM39.88,17.83c0-.7-.44-1.31-1.05-1.56.5-.24.84-.75.84-1.34,0-.56-.32-1.08-.82-1.33.39-.22.66-.64.66-1.12,0-.5-.29-.96-.75-1.17.33-.19.55-.54.55-.95s-.23-.78-.57-.96c.11-.08.19-.19.25-.3.15-.05.29-.11.42-.18l1.1,10.55-.72.4c-.1-.13-.21-.25-.33-.36-.02-.02-.05-.04-.09-.04-.03,0-.12,0-.41.27-.03-.12-.08-.24-.15-.33.65-.25,1.07-.88,1.08-1.57ZM39.7,9.56s.06.09.09.13h-.08s-.01-.13-.01-.13ZM39.8,10.5c1.16.32,2.23,1,3.11,1.98.49.55.89,1.16,1.2,1.83-1.31-.25-2.64-.42-3.97-.5,0,0-.34-3.31-.34-3.31ZM40.54,19.7l.04.41-.52.26-.02-.06c-.04-.09-.08-.18-.13-.27l.63-.34h0ZM45.15,19.46c0-.2-.06-1.34-.06-1.69,0-2.03-.72-3.96-2.02-5.42-.93-1.04-2.06-1.74-3.29-2.07l-.03-.27c3.22.79,5.64,3.96,5.64,7.73,0,.43.04.87.07,1.27l.03.36v.05s.69.53.69.53c-.05.07-.1.15-.15.24l-.87-.71h0ZM40.92,9.86c.08-.05.15-.1.21-.17.01.08.03.15.05.23-.09-.02-.18-.04-.26-.06ZM40.47,8.4c.38,0,.68.31.68.68s-.31.68-.68.68c-.38,0-.68-.31-.68-.68,0-.38.31-.68.68-.68,0,0,0,0,0,0ZM36.93,2.75c-.08,0-.16.03-.23.07v-.87c.07.04.15.06.23.07h.82v-.91c0-.08-.02-.15-.06-.22h.97c-.04.08-.07.16-.07.25v.88h.82c.08,0,.17-.03.23-.07v.87c-.07-.04-.15-.06-.24-.07h-.82v1.2c-.27-.04-.54-.04-.81,0v-1.2h-.85s0,0,0,0ZM35.76,6.57c0-1.34,1.09-2.43,2.43-2.43,1.34,0,2.43,1.08,2.43,2.43,0,1.02-.64,1.9-1.55,2.26.08-.49-.25-.96-.74-1.04-.49-.08-.96.25-1.04.74-.02.1-.02.2,0,.3-.93-.36-1.54-1.26-1.55-2.26ZM35.89,8.4c.38,0,.69.31.69.68s-.31.68-.68.68-.68-.31-.68-.68.31-.68.68-.68ZM35.22,9.69c.06.07.14.13.22.18-.09.02-.18.04-.27.06.03-.08.05-.15.06-.23ZM35.88,10c-2.96,1.07-5.1,4.14-5.1,7.73,0,.4-.04.82-.07,1.19l-.03.36-.6.46c-.06-.08-.13-.16-.2-.24-.02-.03-.06-.05-.09-.05-.03,0-.12-.01-.41.27-.03-.15-.1-.28-.21-.39.7-.22,1.18-.87,1.18-1.61,0-.62-.34-1.16-.83-1.45.74-.12,1.29-.76,1.29-1.51,0-.4-.16-.78-.44-1.07.75.15,1.47-.34,1.61-1.09.02-.09.03-.17.03-.26,0-.23-.06-.45-.16-.64.63.25,1.33-.06,1.58-.68.05-.13.08-.27.09-.41.08-.03.16-.06.24-.09.46.19.98.03,1.27-.37.28-.07.57-.12.85-.17h0ZM26.68,21.43c-.52-.13-.87-.03-1.26.1-.46.16-.66.44-.71.5-.02.02-.03.05-.03.08,0,.03,0,.12.27.41-.15.03-.29.1-.4.21-.14.14-.21.33-.2.57-.01.24.06.43.2.57.11.1.25.17.39.2-.28.28-.27.37-.27.4,0,.03.01.06.03.08.04.07.25.36.71.51.38.12,1.32.29,2.25-.58.07.32.09.55.06.77-.06.44-.59,1.15-1.75,1.19-.89.03-1.67-.64-1.98-1.32-.02-.04-.06-.06-.1-.06-.04,0-.08.03-.1.06-.29.64-1.08,1.29-2.01,1.29-.61,0-1.27-.44-1.48-.98-.11-.3-.19-.62-.21-.94.91.82,1.83.65,2.2.53.46-.15.67-.44.71-.51.02-.02.03-.05.03-.08,0-.03,0-.12-.27-.4.15-.03.28-.1.39-.2.14-.14.21-.33.2-.57.01-.24-.06-.43-.2-.57-.11-.11-.25-.18-.4-.21.28-.28.27-.37.27-.41,0-.03-.02-.06-.04-.09-.04-.05-.26-.29-.69-.49-.42-.19-1.1-.2-1.71-.04.02-.23.02-.5-.03-.75.95-1.54,2.83-3.01,5.39-4.2.36-.17.73-.33,1.11-.48-.51,1.11-.79,2.31-.82,3.53v.05s.56.6.56.6c-.02.04-.03.08-.05.11-.18.43-.21.8-.09,1.1h0ZM29.27,12.25s0,.07,0,.11c0,.06,0,.12.01.18-3.19,1.49-5.89,3.82-7.78,6.69-.37.37-.7.77-.99,1.2,0-.03-.02-.05-.03-.08,1.91-3.55,5.02-6.41,8.79-8.1ZM20.35,20.11c-.16-.27-.37-.47-.62-.7.4.07.81,0,1.15-.21-.19.3-.36.6-.53.9h0ZM21.48,16.89c.36.14.77.14,1.13,0-.32.37-.63.75-.92,1.14.06-.39-.01-.79-.21-1.13ZM23.48,14.84c.31.19.69.24,1.04.16-.34.29-.67.6-.99.92.11-.35.09-.73-.05-1.07h0ZM25.57,13.31c.24.18.55.27.85.25-.32.22-.64.44-.95.67.14-.29.17-.61.1-.92h0ZM26.48,19.53c.05-1.55.5-3.05,1.32-4.37.1.37.34.69.66.89-.85.1-1.48.82-1.49,1.67,0,.72.46,1.34,1.09,1.58l-.03.03c-.1.11-.17.24-.2.39-.28-.28-.37-.27-.41-.27-.03,0-.07.02-.09.04-.15.15-.29.32-.4.51,0,0-.45-.48-.45-.48ZM30.59,14.77c0,.73-.59,1.32-1.32,1.32s-1.32-.59-1.32-1.32c0-.73.59-1.32,1.32-1.32.73,0,1.31.59,1.32,1.32ZM29.33,13.24l.15-.14c.04.07.09.13.14.18-.1-.02-.19-.03-.29-.04h0ZM27.18,17.73c0-.81.66-1.47,1.48-1.47s1.48.66,1.48,1.47c0,.72-.53,1.33-1.22,1.45-.1-.03-.21-.05-.32-.04-.09,0-.18,0-.27.03-.67-.15-1.15-.75-1.15-1.44ZM33.5,10.38h.02s-.02.02-.02.02c0,0,0-.01,0-.02ZM34.17,8.72c.46-.02.86.34.88.8.02.46-.34.86-.8.88-.03,0-.05,0-.08,0-.46.03-.87-.32-.9-.78-.03-.46.32-.87.78-.9.04,0,.08,0,.12,0ZM32.3,9.59c.55,0,1,.45,1,1-.02.55-.49.98-1.05.96-.52-.02-.93-.44-.96-.96,0-.55.45-1,1-1h0ZM31.8,12.35c0,.64-.52,1.16-1.16,1.16-.64,0-1.16-.52-1.16-1.16,0-.64.52-1.16,1.16-1.16.64,0,1.16.52,1.16,1.16ZM29.48,11.62c.01-.06.02-.11.03-.17l.06.06s-.06.07-.08.11h0ZM30.26,9.95c.45,0,.8.37.8.81,0,.09-.02.18-.05.27-.46-.13-.95-.01-1.3.31-.32-.31-.33-.82-.02-1.15.15-.15.35-.24.57-.25h0ZM29.37,12.9c-.13.12-.25.24-.37.36-.73.13-1.26.76-1.26,1.51v.07c-.19.29-.36.6-.52.91-1.99.77-3.71,1.74-5,2.82,1.85-2.5,4.29-4.49,7.1-5.81.02.05.03.1.06.15ZM28.37,10.45c.51-.02.94.37.96.87s-.37.94-.87.96c-.03,0-.06,0-.09,0-.51-.02-.9-.45-.87-.96.02-.47.4-.85.87-.87ZM27.61,12.29s0-.06,0-.09c.17.16.4.26.64.29-.28.14-.55.29-.82.44.12-.19.18-.42.18-.64ZM26.34,11.23c.59,0,1.06.48,1.06,1.06,0,.58-.47,1.06-1.06,1.06s-1.06-.47-1.06-1.06c0-.58.47-1.06,1.06-1.06ZM24.2,12.42c.66,0,1.2.54,1.2,1.21s-.54,1.2-1.2,1.2-1.2-.54-1.2-1.2c0-.66.53-1.21,1.2-1.21h0ZM22.04,14.09c.74,0,1.34.61,1.34,1.36s-.6,1.33-1.34,1.33c-.74,0-1.33-.6-1.34-1.33,0-.75.6-1.36,1.34-1.36ZM18.55,17.76c0-.83.66-1.5,1.48-1.5s1.48.67,1.48,1.5-.66,1.47-1.48,1.47c-.81,0-1.47-.66-1.48-1.47h0ZM18.86,23.99c-.18.04-.38.02-.54-.07-.38-.2-.53-.68-.32-1.06.09-.17.25-.31.44-.37.09.05.33.23.46.64.13.42.02.75-.03.86h0ZM19.85,30.76l1.15-1.4,2.6,1.4-2.6,1.36-1.15-1.36ZM41.27,30.76l-2.78-1.49h16.6l-2.78,1.49,2.82,1.48h-16.68l2.82-1.48h0ZM38.19,32.14l-2.63-1.38,2.63-1.41,2.62,1.41-2.62,1.38ZM35.1,30.76l2.82,1.48h-16.68l2.82-1.48-2.78-1.49h16.6l-2.78,1.49h0ZM55.88,32.96c0,.23-.2.5-.46.5H20.95c-.26,0-.46-.27-.46-.5s.2-.5.46-.5h34.48c.27,0,.46.26.46.5h0ZM56.52,30.76l-1.15,1.36-2.6-1.36,2.6-1.4s1.15,1.4,1.15,1.4ZM55.94,28.62c0,.24-.21.43-.46.43H20.89c-.25,0-.46-.19-.46-.43s.2-.43.46-.43h17.29s17.3,0,17.3,0c.26,0,.46.18.46.43h0ZM58.37,22.85c.1.18.12.39.07.59-.06.2-.2.38-.38.48-.16.09-.36.12-.54.07-.12-.27-.13-.58-.03-.86.13-.41.37-.59.46-.64.18.06.33.19.43.36ZM57.86,22.28c-.09.05-.42.26-.58.78-.18.57.03.99.07,1.06-.29.88-.52,1.47-.99,2.41-.36.72-.82,1.3-.95,1.44H20.97c-.13-.13-.58-.72-.95-1.44-.4-.77-.73-1.58-.99-2.41.02-.04.25-.48.06-1.07-.17-.52-.49-.73-.58-.78-.26-1.07-.56-2.26-1.03-2.92.74.04.94.26,1.22.58l.09.1s.07.04.11.03c.04-.01.07-.04.08-.08.02-.08.24-.43.38-.6.42.35.7.6.9,1.01.16.35.16.82.12,1.16-.03.05-.02.12.03.15.03.02.06.02.09.01.67-.23,1.37-.18,1.71-.02.34.16.53.34.59.41-.11.14-.23.27-.36.38-.03.03-.04.08-.03.12.02.04.06.07.1.07,0,0,.3,0,.48.18.1.1.14.24.13.41h0c0,.19-.04.32-.13.42-.18.17-.48.16-.48.16-.05,0-.09.02-.11.07-.02.04,0,.09.03.12.15.13.31.31.36.39-.15.19-.35.33-.59.4-.35.12-1.27.28-2.16-.66-.03-.03-.08-.04-.12-.03-.04.02-.07.05-.07.1-.02.37.06.85.23,1.28.24.63.98,1.12,1.68,1.12.84,0,1.69-.5,2.11-1.22.39.67,1.18,1.29,2.08,1.25,1.3-.05,1.88-.85,1.95-1.38.04-.3,0-.6-.11-1.04-.02-.06-.07-.09-.13-.08-.02,0-.04.02-.05.03-.89.94-1.81.77-2.16.66-.23-.07-.44-.21-.58-.4.05-.08.21-.25.36-.39.04-.04.05-.11,0-.15-.02-.02-.05-.04-.09-.04,0,0-.3.01-.48-.16-.09-.1-.14-.23-.13-.41h0c0-.19.04-.33.13-.42.18-.18.48-.18.48-.18.06,0,.11-.05.11-.1,0-.03-.01-.06-.03-.08-.13-.12-.25-.25-.36-.39.05-.07.23-.28.59-.4.44-.15.77-.24,1.37-.03.06.02.12,0,.14-.07.01-.03,0-.07-.01-.1-.21-.28-.21-.67-.02-1.14.11-.27.28-.51.48-.71.08.05.25.21.38.35.03.03.08.04.12.03.04-.02.07-.06.07-.11,0,0-.01-.3.16-.48.1-.1.23-.14.41-.13h.01c.18,0,.31.04.41.13.18.18.18.48.18.48,0,.06.05.11.11.11.03,0,.06-.01.08-.03.13-.14.3-.3.38-.35.09.1.31.37.48.7.13.26.31.76.04,1.13-.03.04-.03.1.01.14.04.04.1.04.14.01.31-.22.91-.13,1.36.02.36.12.54.33.59.4-.11.14-.23.27-.36.39-.03.03-.04.08-.03.12.02.04.06.07.1.07,0,0,.3,0,.48.17.1.1.14.24.13.41h0c0,.19-.04.32-.13.42-.18.17-.48.16-.48.16-.05,0-.09.02-.11.07-.02.04,0,.09.03.12.15.14.32.31.36.39-.05.07-.23.28-.59.4-.35.11-1.28.28-2.16-.66-.04-.04-.11-.05-.15,0-.01.01-.02.03-.03.05-.12.45-.15.75-.11,1.04.07.53.65,1.33,1.95,1.38.93.03,1.73-.56,2.12-1.22.38.66,1.17,1.26,2.08,1.22,1.31-.05,1.88-.85,1.95-1.38.05-.33,0-.66-.11-1.04-.01-.06-.07-.09-.13-.08-.02,0-.04.02-.05.03-.89.94-1.81.77-2.16.66-.23-.07-.44-.21-.59-.4.05-.08.21-.25.36-.39.03-.03.04-.08.03-.12-.02-.04-.06-.07-.11-.07,0,0-.3.01-.48-.16-.1-.1-.14-.23-.13-.41h0c0-.19.04-.32.13-.42.18-.18.48-.17.48-.17.05,0,.09-.03.1-.07.02-.04,0-.09-.03-.12-.13-.12-.25-.25-.36-.39.06-.07.24-.27.59-.4.45-.17,1.05-.25,1.36-.02.05.03.12.02.15-.03.02-.04.02-.08,0-.12-.2-.27-.19-.6.02-1.14.14-.36.4-.62.49-.7.08.05.25.21.38.36.03.03.08.05.12.03.04-.02.07-.06.07-.11,0,0-.02-.3.16-.48.09-.1.23-.14.41-.13h.01c.17,0,.31.04.41.13.18.18.18.48.18.48,0,.06.05.11.11.11.03,0,.06-.01.08-.03.13-.14.31-.31.39-.36.09.08.35.34.5.7.16.39.27.81.02,1.14-.03.04-.03.1.01.14.04.04.1.04.14.01.31-.22.91-.15,1.36.02.35.14.53.34.59.4-.05.08-.21.25-.36.39-.03.03-.04.08-.03.12.02.04.06.07.1.07,0,0,.31,0,.48.17.1.1.14.23.13.41h0c0,.19-.04.32-.13.42-.18.18-.48.16-.48.16-.05,0-.09.02-.11.07-.02.04,0,.09.03.12.15.14.31.31.36.39-.15.19-.35.33-.59.4-.35.11-1.28.28-2.16-.66-.04-.04-.11-.05-.15,0-.01.01-.02.03-.03.05-.12.45-.15.75-.11,1.04.07.53.65,1.33,1.95,1.38.9.03,1.7-.57,2.08-1.22.38.65,1.2,1.26,2.12,1.22,1.3-.05,1.88-.85,1.95-1.38.04-.29,0-.6-.11-1.04-.02-.06-.08-.09-.13-.08-.02,0-.04.02-.05.03-.89.94-1.8.77-2.16.66-.23-.07-.44-.21-.59-.4.05-.08.21-.25.36-.39.03-.03.05-.08.03-.12-.02-.04-.06-.07-.11-.07,0,0-.3.01-.48-.16-.1-.1-.14-.23-.13-.41h0c0-.19.04-.32.13-.42.18-.18.48-.17.48-.17.05,0,.09-.02.1-.07.02-.04,0-.09-.03-.12-.13-.12-.25-.25-.36-.39.05-.07.23-.28.59-.4.46-.16,1.05-.25,1.36-.02.04.03.1.03.14-.01.04-.04.04-.1.01-.14-.27-.37-.09-.87.04-1.13.18-.34.39-.61.48-.7.08.05.25.21.38.35.04.04.11.05.15,0,.02-.02.03-.05.03-.08,0,0,0-.3.18-.48.1-.1.24-.14.41-.13h.01c.18,0,.31.04.41.13.18.18.16.48.16.48,0,.05.02.09.07.11.04.02.09,0,.12-.03.13-.14.3-.3.38-.35.09.09.33.36.48.72.2.47.19.86-.02,1.14-.04.05-.02.12.02.15.03.02.07.03.1.01.6-.21.93-.13,1.38.03.35.12.53.33.59.4-.11.14-.23.27-.36.39-.03.03-.04.08-.03.12.02.04.06.07.1.07,0,0,.31,0,.48.18.1.1.14.24.13.41h0c0,.18-.04.32-.13.41-.18.18-.48.16-.48.16-.06,0-.11.04-.12.1,0,.03.01.07.04.09.15.13.31.31.36.39-.15.19-.35.33-.58.4-.36.11-1.28.28-2.16-.66-.04-.04-.11-.05-.15,0-.01.01-.02.03-.03.05-.12.44-.15.75-.11,1.04.07.53.65,1.33,1.96,1.38.9.03,1.69-.58,2.07-1.25.42.72,1.28,1.22,2.12,1.22.7,0,1.43-.49,1.68-1.12.16-.43.25-.91.23-1.28,0-.04-.03-.08-.07-.1-.04-.01-.09,0-.12.03-.89.94-1.81.77-2.16.66-.37-.12-.54-.33-.58-.4.11-.14.23-.27.36-.39.03-.03.04-.08.03-.12-.02-.04-.06-.07-.11-.07,0,0-.3.01-.48-.16-.1-.09-.14-.23-.13-.4h0c0-.19.04-.32.13-.42.18-.18.48-.18.48-.18.04,0,.09-.03.1-.07.02-.04,0-.09-.03-.12-.13-.12-.25-.24-.36-.38.07-.07.26-.25.59-.41.35-.16,1.05-.2,1.72.02.04.01.08,0,.11-.02.03-.03.04-.07.03-.11h0c-.04-.35-.05-.83.12-1.19.19-.41.47-.66.89-1.01.14.17.36.52.38.6.01.06.07.09.13.08.02,0,.04-.02.05-.03l.09-.1c.28-.32.48-.55,1.22-.58-.46.66-.76,1.85-1.02,2.92h0Z"/>
  <path class="cls-3" d="M20.78,31.86l1.98-1.09-2.02-1.09.25-.31,2.6,1.39-2.6,1.36-.22-.26h0ZM55.37,32.12l-2.6-1.36,2.6-1.39.25.31-2.02,1.1,1.98,1.09-.22.26h0Z"/>
</svg>